<svg width="496" height="71" viewBox="0 0 496 71" xmlns="http://www.w3.org/2000/svg"><title>Artboard Copy 2</title><g fill="#FFF" fill-rule="nonzero"><path d="M.7 1.4h34c12 0 20.3 7 20.3 16.8 0 6.8-3.4 11.8-9.4 14.9 7.8 3.5 12.3 9.8 12.3 17.2 0 10.7-9.2 18.2-22 18.2H.7V1.4zm30.4 27.1c5.4 0 9.2-3.1 9.2-7.4 0-4.2-3.8-7.3-9.2-7.3h-16v14.7h16zm2.2 27.7c5.8 0 9.9-3.4 9.9-8.2 0-4.8-4.1-8.2-9.9-8.2H15v16.4h18.3zM113.3 57.9H83.4l-4.3 10.5H63L90.3 1.3h16.1l27.3 67.1h-16.2l-4.2-10.5zm-5-12.2l-10-24.5-10 24.5h20zM142.3 1.4h14.4L189 44.8V1.4h14.5v67.1H189l-32.3-43.4v43.4h-14.4V1.4zM248 30.8h29.7v27.6c-6.7 7-17.1 11.2-27.1 11.2-19.4 0-35.9-15.9-35.9-34.8C214.7 16 231.2.1 250.6.1c10.1 0 20.4 4.2 27.1 11.2l-10.4 9.4c-4-4.6-10.5-7.5-16.7-7.5-11.4 0-21.1 10-21.1 21.6 0 11.7 9.7 21.7 21.1 21.7 4.6 0 9.3-1.6 13.1-4.3V42H248V30.8zM290.3 1.4h14.4v30.8l27.1-30.8h17.5l-26.2 29.1 28 38h-17.5L313 40.8l-8.4 9v18.7h-14.4V1.4zM352.8 34.9c0-18.8 16.4-34.7 35.6-34.7C407.8.2 424 16 424 34.9c0 18.8-16.2 34.8-35.6 34.8-19.2 0-35.6-16-35.6-34.8zm56.6 0c0-11.6-9.6-21.6-20.9-21.6-11.2 0-20.8 10-20.8 21.6 0 11.7 9.6 21.7 20.8 21.7 11.3 0 20.9-10 20.9-21.7zM435.2 1.4h14.4v30.8l27.1-30.8h17.5L468 30.5l28 38h-17.5L458 40.8l-8.4 9v18.7h-14.4z"/></g></svg>