<?xml version="1.0" encoding="utf-8"?>
<!-- Generator: Adobe Illustrator 19.1.0, SVG Export Plug-In . SVG Version: 6.00 Build 0)  -->
<svg version="1.1" id="Layer_1" xmlns="http://www.w3.org/2000/svg" xmlns:xlink="http://www.w3.org/1999/xlink" x="0px" y="0px"
	 viewBox="-262 178 274 245" style="enable-background:new -262 178 274 245;" xml:space="preserve">
<style type="text/css">
	.st0{filter:url(#Adobe_OpacityMaskFilter);}
	.st1{fill:#FFFFFF;}
	.st2{mask:url(#b);}
	.st3{filter:url(#Adobe_OpacityMaskFilter_1_);}
	.st4{mask:url(#e);}
</style>
<g>
	<path d="M-125,255.7c-32.2,0-63.1,4.6-86.1,12.7c-25.1,8.8-40.2,21.9-40.2,32.3c0,11,16.4,25.2,42.7,34.2
		c21.5,7.4,50.9,11.3,83.6,11.3c31.2,0,60.2-4,81.9-11.2c27.4-9.2,44.4-23.2,44.4-34.3c0-10.4-15.7-23.6-41.4-32.5
		C-63,260.2-93.2,255.7-125,255.7L-125,255.7z M-125,245c32.9,0,64.3,4.7,88.5,13.1C-7,268.3,12,284.4,12,300.8
		c0,17.1-20.3,34-51.7,44.5C-62.6,352.9-92.8,357-125,357c-33.8,0-64.3-4-87.1-11.9c-30.1-10.4-49.9-27.5-49.9-44.4
		c0-16.3,18.4-32.2,47.4-42.4C-190.4,249.8-158.3,245-125,245z"/>
	<path d="M-162.9,278c-16.1,28.1-27.6,57.4-32.2,81.4c-5,26.3-1.3,46,7.7,51.2c9.4,5.4,29.9-1.8,50.8-20.2
		c17.1-15,35.2-38.7,51.6-67.3c15.6-27.2,26.8-54.5,31.4-77c5.9-28.5,2.2-50.3-7.3-55.8c-8.9-5.2-28.2,1.9-48.7,19.8
		C-127.9,226.2-146.9,250.3-162.9,278L-162.9,278z M-172.1,272.7c16.5-28.7,36.2-53.7,55.6-70.6c23.6-20.6,47-29.2,61.1-21
		c14.7,8.5,19.1,34.7,12.4,67.2c-4.9,23.8-16.5,52.1-32.6,80.2c-16.9,29.5-35.7,54.1-53.8,70c-24.1,21.1-48.7,29.8-63.3,21.4
		c-14.1-8.1-18.5-32.1-12.8-62.4C-200.8,332.1-188.8,301.7-172.1,272.7L-172.1,272.7z"/>
	<path d="M-163,323c16.1,28.1,35.6,52.7,54.1,68.7c20.2,17.5,38.9,24.1,47.8,18.9c9.4-5.5,13.4-26.9,8-54.4
		c-4.4-22.4-15.8-50-32.2-78.5c-15.6-27.2-33.6-50.5-50.7-65.8c-21.6-19.3-42.2-27-51.6-21.5c-8.9,5.2-12.4,25.5-7.2,52.3
		C-190.2,266.7-178.9,295.3-163,323L-163,323z M-172.3,328.4c-16.5-28.7-28.2-58.4-33.1-83.6c-6-30.8-1.8-55.4,12.3-63.6
		c14.7-8.6,39.4,0.7,64.1,22.8c18.1,16.1,36.7,40.4,52.9,68.5c16.9,29.5,28.8,58.1,33.4,81.8c6.2,31.4,1.4,57.2-13.1,65.7
		c-14,8.2-36.9,0.1-60.2-20.1C-135.3,383-155.6,357.4-172.3,328.4z"/>
	<path d="M-124,314c7.2,0,13-5.8,13-13s-5.8-13-13-13s-13,5.8-13,13S-131.2,314-124,314z M-123.8,311.5c5.7,0,10.2-4.6,10.2-10.2
		s-4.6-10.2-10.2-10.2s-10.2,4.6-10.2,10.2S-129.4,311.5-123.8,311.5z M-123.8,308c3.7,0,6.8-3,6.8-6.8s-3-6.8-6.8-6.8
		s-6.8,3-6.8,6.8S-127.5,308-123.8,308z"/>
	<g transform="translate(124 84)">
		<g>
			<path id="a_1_" d="M-240.7,207.6c-2.2-1.8-4.9-2.8-7.7-2.8c-3.1,0-5.9,1.2-8.1,3.1c-3.5-2.5-5.5-6.6-5.5-10.8
				c0-1.9,0.7-3.7,1.7-5.4l0.3-0.5l1.3,0.7l0.7-3.4c1-1.2,2.1-2.3,3.3-3.3c1.6-1.4,5.9-7,5.9-7s4.1,5.6,5.1,6.7
				c0.5,0.5,2.2,1.9,4,3.9l0.2,0.3l0.7,3.1l1.2-0.7l0.2,0.3c1.1,1.7,1.9,3.6,1.9,5.4C-235.6,201.3-237.6,205.1-240.7,207.6z
				 M-248.8,204.5c3.9,0,7.1-3.2,7.1-7.2c0-3-3.8-6.1-4.4-6.6c-0.5-0.6-2.7-3.6-2.7-3.6s-2.3,3-3.2,3.8c-0.8,0.7-4,3.6-4,6.4
				C-255.9,201.3-252.7,204.5-248.8,204.5z"/>
		</g>
		<defs>
			<filter id="Adobe_OpacityMaskFilter" filterUnits="userSpaceOnUse" x="-262" y="223.2" width="26.4" height="32.4">
				<feColorMatrix  type="matrix" values="1 0 0 0 0  0 1 0 0 0  0 0 1 0 0  0 0 0 1 0"/>
			</filter>
		</defs>
		<mask maskUnits="userSpaceOnUse" x="-262" y="223.2" width="26.4" height="32.4" id="b">
			<g class="st0">
				<path id="a" class="st1" d="M-240.7,207.6c-2.2-1.8-4.9-2.8-7.7-2.8c-3.1,0-5.9,1.2-8.1,3.1c-3.5-2.5-5.5-6.6-5.5-10.8
					c0-1.9,0.7-3.7,1.7-5.4l0.3-0.5l1.3,0.7l0.7-3.4c1-1.2,2.1-2.3,3.3-3.3c1.6-1.4,5.9-7,5.9-7s4.1,5.6,5.1,6.7
					c0.5,0.5,2.2,1.9,4,3.9l0.2,0.3l0.7,3.1l1.2-0.7l0.2,0.3c1.1,1.7,1.9,3.6,1.9,5.4C-235.6,201.3-237.6,205.1-240.7,207.6z
					 M-248.8,204.5c3.9,0,7.1-3.2,7.1-7.2c0-3-3.8-6.1-4.4-6.6c-0.5-0.6-2.7-3.6-2.7-3.6s-2.3,3-3.2,3.8c-0.8,0.7-4,3.6-4,6.4
					C-255.9,201.3-252.7,204.5-248.8,204.5z"/>
			</g>
		</mask>
		<path class="st2" d="M-258.1,244.7l-0.7-3.1l-1.2,0.7l-0.2-0.3c-1.1-1.7-1.9-3.6-1.9-5.4c0-7.4,5.9-13.4,13.2-13.4
			c7.3,0,13.2,6,13.2,13.4c0,1.9-0.7,3.7-1.7,5.4l-0.3,0.5l-1.3-0.7l-0.7,3.4c-1,1.2-2.1,2.3-3.3,3.3c-1.6,1.4-5.9,7-5.9,7
			s-4.1-5.7-5.1-6.7c-0.5-0.5-2.2-1.9-4-3.9L-258.1,244.7L-258.1,244.7z M-248.8,229c-3.9,0-7.1,3.2-7.1,7.2c0,3,3.8,6.1,4.4,6.6
			c0.5,0.5,2.7,3.6,2.7,3.6s2.3-3,3.2-3.8c0.8-0.7,4-3.6,4-6.4C-241.7,232.2-244.9,229-248.8,229L-248.8,229z"/>
	</g>
	<g transform="rotate(90 33.5 143)">
		<path id="c" d="M-115.3,308.5c1.9-2.2,2.9-4.9,2.9-7.8c0-2.9-1-5.6-2.9-7.8c2.5-3.4,6.5-5.4,10.8-5.4c1.9,0,3.7,0.7,5.4,1.7
			l0.5,0.3l-0.7,1.3l3.4,0.7c1.2,1,2.3,2.1,3.3,3.3c1.4,1.6,7,5.9,7,5.9s-5.7,4.1-6.7,5.1c-0.5,0.5-1.9,2.2-3.9,4l-0.3,0.2l-3.1,0.7
			l0.7,1.2l-0.3,0.2c-1.7,1.1-3.6,1.9-5.4,1.9C-108.9,313.9-112.8,311.8-115.3,308.5L-115.3,308.5z M-112,300.7
			c0,3.9,3.2,7.1,7.2,7.1c3,0,6.1-3.8,6.6-4.4c0.5-0.5,3.6-2.7,3.6-2.7s-3-2.3-3.8-3.2c-0.7-0.8-3.6-4-6.4-4
			C-108.8,293.6-112,296.8-112,300.7L-112,300.7z"/>
	</g>
	<g transform="rotate(180 75.5 80.5)">
		<g>
			<path id="d_1_" d="M283.3-148.4c-2.2-1.8-4.9-2.8-7.7-2.8c-3.1,0-5.9,1.2-8.1,3.1c-3.5-2.5-5.5-6.6-5.5-10.8
				c0-1.9,0.7-3.7,1.7-5.4l0.3-0.5l1.3,0.7l0.7-3.4c1-1.2,2.1-2.3,3.3-3.3c1.6-1.4,5.9-7,5.9-7s4.1,5.6,5.1,6.7
				c0.5,0.5,2.2,1.9,4,3.9l0.2,0.3l0.7,3.1l1.2-0.7l0.2,0.3c1.1,1.7,1.9,3.6,1.9,5.4C288.4-154.7,286.4-150.9,283.3-148.4z
				 M275.2-151.5c3.9,0,7.1-3.2,7.1-7.2c0-3-3.8-6.1-4.4-6.6c-0.5-0.6-2.7-3.6-2.7-3.6s-2.3,3-3.2,3.8c-0.8,0.7-4,3.6-4,6.4
				C268.1-154.7,271.3-151.5,275.2-151.5z"/>
		</g>
		<defs>
			<filter id="Adobe_OpacityMaskFilter_1_" filterUnits="userSpaceOnUse">
				<feColorMatrix  type="matrix" values="1 0 0 0 0  0 1 0 0 0  0 0 1 0 0  0 0 0 1 0"/>
			</filter>
		</defs>
		<mask maskUnits="userSpaceOnUse" id="e">
			<g class="st3">
				<path id="d" class="st1" d="M283.3-148.4c-2.2-1.8-4.9-2.8-7.7-2.8c-3.1,0-5.9,1.2-8.1,3.1c-3.5-2.5-5.5-6.6-5.5-10.8
					c0-1.9,0.7-3.7,1.7-5.4l0.3-0.5l1.3,0.7l0.7-3.4c1-1.2,2.1-2.3,3.3-3.3c1.6-1.4,5.9-7,5.9-7s4.1,5.6,5.1,6.7
					c0.5,0.5,2.2,1.9,4,3.9l0.2,0.3l0.7,3.1l1.2-0.7l0.2,0.3c1.1,1.7,1.9,3.6,1.9,5.4C288.4-154.7,286.4-150.9,283.3-148.4z
					 M275.2-151.5c3.9,0,7.1-3.2,7.1-7.2c0-3-3.8-6.1-4.4-6.6c-0.5-0.6-2.7-3.6-2.7-3.6s-2.3,3-3.2,3.8c-0.8,0.7-4,3.6-4,6.4
					C268.1-154.7,271.3-151.5,275.2-151.5z"/>
			</g>
		</mask>
		<path class="st4" d="M265.9-111.3l-0.7-3.1l-1.2,0.7l-0.2-0.3c-1.1-1.7-1.9-3.6-1.9-5.4c0-7.4,5.9-13.4,13.2-13.4
			s13.2,6,13.2,13.4c0,1.9-0.7,3.7-1.7,5.4l-0.3,0.5l-1.3-0.7l-0.7,3.4c-1,1.2-2.1,2.3-3.3,3.3c-1.6,1.4-5.9,7-5.9,7
			s-4.1-5.7-5.1-6.7c-0.5-0.5-2.2-1.9-4-3.9L265.9-111.3L265.9-111.3z M275.2-127c-3.9,0-7.1,3.2-7.1,7.2c0,3,3.8,6.1,4.4,6.6
			c0.5,0.5,2.7,3.6,2.7,3.6s2.3-3,3.2-3.8c0.8-0.7,4-3.6,4-6.4C282.3-123.8,279.1-127,275.2-127L275.2-127z"/>
	</g>
	<g transform="rotate(-90 117.5 19)">
		<path id="f" d="M-133.7,293.5c-1.9,2.2-2.9,4.9-2.9,7.8c0,2.9,1,5.6,2.9,7.8c-2.5,3.4-6.5,5.4-10.8,5.4c-1.9,0-3.7-0.7-5.4-1.7
			l-0.5-0.3l0.7-1.3l-3.4-0.7c-1.2-1-2.3-2.1-3.3-3.3c-1.4-1.6-7-5.9-7-5.9s5.6-4.1,6.7-5.1c0.5-0.5,1.9-2.2,3.9-4l0.3-0.2l3.1-0.7
			l-0.7-1.2l0.3-0.2c1.7-1.1,3.6-1.9,5.4-1.9C-140.1,288.1-136.2,290.2-133.7,293.5L-133.7,293.5z M-137,301.3
			c0-3.9-3.2-7.1-7.2-7.1c-3,0-6.1,3.8-6.6,4.4c-0.6,0.5-3.6,2.7-3.6,2.7s3,2.3,3.8,3.2s3.6,4,6.4,4
			C-140.2,308.4-137,305.2-137,301.3L-137,301.3z"/>
	</g>
</g>
</svg>
