<?xml version="1.0" encoding="utf-8"?>
<!-- Generator: Adobe Illustrator 19.1.0, SVG Export Plug-In . SVG Version: 6.00 Build 0)  -->
<svg version="1.1" id="Layer_1" xmlns="http://www.w3.org/2000/svg" xmlns:xlink="http://www.w3.org/1999/xlink" x="0px" y="0px"
	 viewBox="0 0 11 9.7" style="enable-background:new 0 0 11 9.7;" xml:space="preserve">
<style type="text/css">
	.st0{fill:#00BCDD;}
</style>
<path class="st0" d="M10.9,8.7L6,0.3c0,0,0-0.1-0.1-0.1C5.8,0.1,5.7,0,5.5,0C5.2,0,5,0.1,4.9,0.3L0.1,8.8C0,9,0,9.2,0.1,9.4
	c0.1,0.2,0.3,0.3,0.5,0.3l9.8,0c0.2,0,0.4-0.1,0.5-0.3C11,9.2,11,8.9,10.9,8.7z M1.7,8.5l3.8-6.6l3.8,6.6L1.7,8.5z"/>
</svg>
