<?xml version="1.0" encoding="utf-8"?>
<!-- Generator: Adobe Illustrator 19.1.0, SVG Export Plug-In . SVG Version: 6.00 Build 0)  -->
<svg version="1.1" id="Layer_1" xmlns="http://www.w3.org/2000/svg" xmlns:xlink="http://www.w3.org/1999/xlink" x="0px" y="0px"
	 viewBox="0 0 11.5 11.2" style="enable-background:new 0 0 11.5 11.2;" xml:space="preserve">
<style type="text/css">
	.st0{fill:#00BCDD;}
</style>
<path class="st0" d="M1.3,6.9L1.3,6.9c0.9,0,1.6,0.3,2.2,1V8c0.6,0.6,1,1.3,1,2c0,0.3,0.1,0.6,0.4,0.9c0.3,0.3,0.6,0.4,0.9,0.4
	c0.3,0,0.6-0.1,0.9-0.4C6.9,10.6,7,10.3,7,10c0-0.8,0.3-1.4,1-2.1c0.6-0.6,1.4-1,2.3-1c0.4,0,0.6-0.1,0.9-0.4
	c0.3-0.3,0.4-0.5,0.4-0.8c0-0.4-0.1-0.7-0.4-1c-0.2-0.3-0.5-0.4-0.8-0.4h-0.1C9.4,4.3,8.6,4,8,3.4c-0.6-0.6-0.9-1.3-1-2V1.3
	c0-0.3-0.1-0.6-0.4-0.9C6.4,0.1,6.1,0,5.8,0C5.4,0,5.1,0.1,4.8,0.4C4.6,0.6,4.5,0.9,4.5,1.3c0,0.8-0.4,1.5-1,2.1
	c-0.6,0.6-1.4,1-2.2,1c-0.4,0-0.7,0.1-0.9,0.4C0.1,5,0,5.4,0,5.7C0,6,0.1,6.3,0.4,6.5C0.6,6.8,0.9,6.9,1.3,6.9"/>
</svg>
