<?xml version="1.0" encoding="utf-8"?>
<!-- Generator: Adobe Illustrator 19.1.0, SVG Export Plug-In . SVG Version: 6.00 Build 0)  -->
<svg version="1.1" id="Layer_1" xmlns="http://www.w3.org/2000/svg" xmlns:xlink="http://www.w3.org/1999/xlink" x="0px" y="0px"
	 viewBox="0 0 10.6 10.6" style="enable-background:new 0 0 10.6 10.6;" xml:space="preserve">
<style type="text/css">
	.st0{fill:#61dafb;}
</style>
<path class="st0" d="M4.3,0.4C4.1,0.7,3.9,1,3.9,1.4v2.5H1.4c-0.4,0-0.7,0.1-1,0.4C0.1,4.6,0,4.9,0,5.3c0,0.4,0.1,0.7,0.4,1
	c0.3,0.3,0.6,0.4,1,0.4h2.5v2.5c0,0.4,0.1,0.7,0.4,1c0.3,0.3,0.6,0.4,1,0.4s0.7-0.1,1-0.4c0.3-0.3,0.4-0.6,0.4-1V6.7h2.5
	c0.4,0,0.7-0.1,1-0.4c0.3-0.3,0.4-0.6,0.4-1c0-0.4-0.1-0.7-0.4-1c-0.3-0.3-0.6-0.4-1-0.4H6.7V1.4c0-0.4-0.1-0.7-0.4-1
	C6,0.1,5.7,0,5.3,0S4.6,0.1,4.3,0.4"/>
</svg>
