<?xml version="1.0" encoding="utf-8"?>
<!-- Generator: Adobe Illustrator 19.1.0, SVG Export Plug-In . SVG Version: 6.00 Build 0)  -->
<svg version="1.1" id="Layer_1" xmlns="http://www.w3.org/2000/svg" xmlns:xlink="http://www.w3.org/1999/xlink" x="0px" y="0px"
	 viewBox="-393 295.8 11.5 11.2" style="enable-background:new -393 295.8 11.5 11.2;" xml:space="preserve">
<style type="text/css">
	.st0{opacity:0.2;fill:#474B4F;}
</style>
<path class="st0" d="M-391.7,302.7L-391.7,302.7c0.9,0,1.6,0.3,2.2,1v0.1c0.6,0.6,1,1.3,1,2c0,0.3,0.1,0.6,0.4,0.9
	c0.3,0.3,0.6,0.4,0.9,0.4c0.3,0,0.6-0.1,0.9-0.4c0.2-0.3,0.3-0.6,0.3-0.9c0-0.8,0.3-1.4,1-2.1c0.6-0.6,1.4-1,2.3-1
	c0.4,0,0.6-0.1,0.9-0.4c0.3-0.3,0.4-0.5,0.4-0.8c0-0.4-0.1-0.7-0.4-1c-0.2-0.3-0.5-0.4-0.8-0.4h-0.1c-0.9,0-1.7-0.3-2.3-0.9
	s-0.9-1.3-1-2v-0.1c0-0.3-0.1-0.6-0.4-0.9c-0.2-0.3-0.5-0.4-0.8-0.4c-0.4,0-0.7,0.1-1,0.4c-0.2,0.2-0.3,0.5-0.3,0.9
	c0,0.8-0.4,1.5-1,2.1s-1.4,1-2.2,1c-0.4,0-0.7,0.1-0.9,0.4c-0.3,0.2-0.4,0.6-0.4,0.9c0,0.3,0.1,0.6,0.4,0.8
	C-392.4,302.6-392.1,302.7-391.7,302.7"/>
</svg>
