<svg width="329" height="71" viewBox="0 0 329 71" xmlns="http://www.w3.org/2000/svg"><title>Artboard Copy</title><g fill="#00D8FF" fill-rule="nonzero"><path d="M55.8 65.7l-3.7-5.2-7.3-10.3-3.6-5.1-.1-.2c.1 0 .2-.1.3-.1 3.2-1.1 6-2.9 8.3-5.1 3.9-3.6 6.3-8.5 6.7-14.2.1-.6.1-1.2.1-1.7 0-2.9-.5-5.6-1.4-8-1.5-4-4.1-7.3-7.5-9.8-1.6-1.2-3.3-2.1-5.2-2.9-3.3-1.4-7-2.1-11.1-2.1H.7v67.5h15.4V47.3h11.4l.4.5 7.5 9.7 3.7 4.8 4.8 6.2h13.7l-1.8-2.8zm-21-32.4c-1.3.3-2.6.5-4.1.5H16.2V14.5h14.5c2.2 0 4.2.3 5.9 1 2.1.8 3.8 2.1 4.8 3.7.9 1.4 1.5 3.1 1.5 5 0 4.6-3.2 7.9-8.1 9.1zM68.2 1v67.5h52.1V56.9H81.7V41.5h34.7V28H81.7V14.5h38.6V1zM257.9 52.3l-2.5-2.3c-3.1 3.6-7.2 6.2-11.8 7.2-1.3.3-2.7.4-4.1.4-1 0-2-.1-2.9-.2-3.7-.6-7.1-2.2-10-4.5-1.5-1.2-2.8-2.6-4-4.2-2.7-3.7-4.3-8.2-4.3-13.1 0-1.6.2-3.1.5-4.6.7-3.3 2.2-6.3 4.2-8.9 3.8-5 9.6-8.3 16-8.4h.4c1.8 0 3.5.3 5.2.7 3.6 1 6.8 3 9.5 5.6.4.4.8.8 1.2 1.3l8.7-7.8 1.9-1.7-.8-.8c-1.5-1.5-3.2-2.9-4.9-4.1-3-2.1-6.3-3.7-9.8-4.8-1.7-.5-3.5-1-5.3-1.3-1.8-.3-3.7-.4-5.6-.4-2.2 0-4.4.2-6.5.6-2.7.5-5.2 1.3-7.6 2.3-12.8 5.5-22 18-22 32.3 0 3.7.6 7.4 1.8 10.8.8 2.5 1.9 4.8 3.3 6.9 2.1 3.4 4.7 6.5 7.8 9.1 1.4 1.2 2.9 2.2 4.5 3.2 3.1 1.9 6.5 3.3 10.1 4.2 2.1.5 4.2.9 6.4 1 .8.1 1.6.1 2.4.1 3.6 0 7.1-.5 10.4-1.6 2.1-.6 4.2-1.4 6.2-2.5 3.7-1.9 7.1-4.4 9.9-7.4l-4.5-4.1-3.8-3zM270.8 1v13.5H292v54h15.4v-54h21.2V1zM178 20.2c-3.9 1.6-8 3.7-12.1 6.4-.4.3-.9.6-1.4.9l-2.6-6.4-4.7 11.7-1.2.9c-1.5 1.2-3.1 2.5-4.6 3.8-2.1 1.8-4.2 3.8-6.3 5.8-1.3-1.3-2.7-2.5-4-3.7l-.5-.5-1.8-1.5 15-36.6h16.4l.6 1.4 3 7.5 4.2 10.3zM198 70.4h-16.3l-3.3-8.2-1.4-3.4h-18.2c-1.7-2.1-3.4-4.1-5.1-6-.6-.6-1.2-1.3-1.7-1.9 1.3-1.3 2.6-2.5 4-3.7h16l-1.8-4.3-2.2-5.4c2.3-1.6 4.6-3 6.7-4.2 2.3-1.3 4.4-2.3 6.5-3.2.1 0 .1-.1.2-.1l5.5 13.6 3.4 8.3 5.6 13.8 2.1 4.7zM146.8 59.7l-4.4 10.7h-8c3.2-4 6.4-7.8 9.7-11.4.3-.4.7-.7 1-1.1.6.6 1.1 1.2 1.7 1.8zM138.7 50.6c-1.9 2-3.7 4.1-5.6 6.2-1.2 1.3-2.3 2.7-3.4 4.1l5.5-13.6c.6.5 1.1 1 1.7 1.5.6.6 1.1 1.2 1.8 1.8z"/></g></svg>