<svg width="90" height="93" viewBox="0 0 90 93" xmlns="http://www.w3.org/2000/svg"><title>appman</title><g fill="#DEDFDF" fill-rule="evenodd"><path d="M19.69 92.614L21.55 78h-6.38L0 92.668h6.178l4.457-4.42h4.455l1.044-3.414h-2.017l3.143-3.117-1.327 10.897zM77.772 92.627H73L74.543 78h6.092l5.442 9.29V78h4.194v14.627h-5.955l-5.552-9.128zM64.123 89h-1.194L60 91.892l.03.685h4.248zM63.384 78h-6.765l-2.11 7.964L52.399 78h-5.823L45 92.647h4.248l.445-10.468 2.649 7.956.103.307 2.345-2.264 3.746-3.617.79-2.382.059 1.561 4.076-3.964zM24.637 92.694l1.358-11.449c2.432-.675 3.028.238 3.229.554.424.67.263 1.583-.322 2.092-.407.354-1.036.525-2.259.39l-.337 2.603c1.375.462 4.432.501 5.539-.937l.871-6.673a3.17 3.17 0 0 0-1.982-1.108 16.12 16.12 0 0 0-2.512-.165H21.87L20 92.694h4.637z"/><path d="M45.905 81.234a3.588 3.588 0 0 0-1.254-1.994c-1.12-.897-2.853-1.24-4.997-1.24h-5.818L32 92.691h4.602l.746-6.289.613-5.16c2.432-.675 3.027.237 3.228.554.425.67.264 1.583-.322 2.091-.405.355-1.036.526-2.26.389l-.327 2.543a6.373 6.373 0 0 0 1.539.317 8.133 8.133 0 0 0 2.227-.189 5.862 5.862 0 0 0 1.279-.489c2.042-1.066 3.093-3.197 2.58-5.224M29.247 9.195c1.367 2.623.93 3.62 1.266 4.683.505 1.596 3.938-1.608 6.793-2.719 2.854-1.11 5.228-.3 6.814.65 0 0 3.154-.555-3.25-8.22-6.402-7.668-15.248-1.268-14.857 2.75.144 1.505 2.44 1.333 3.234 2.856M52.079 54.999L47 61.958a5.381 5.381 0 0 0 2.058 1.799c2.864 1.393 6.639-.093 9.745-3.432L58.455 47l-3.469 4.014 2.754-.159-.957 3.878-4.704.266z"/><path d="M61.2 39.522c-4.065-1.979-9.967 1.84-13.18 8.524-1.394 2.904-2.053 5.872-2.019 8.461L55.61 43.34l6.261-.354.554-.033.316 12.248c3.207-6.68 2.52-13.7-1.54-15.679"/><path d="M66.942 40.783c.242-4.894-.476-9.667-2.234-13.77 1.732-.133 5.776-.242 7.949 1.37 5.894 4.362-2.021 10.117-5.715 12.4m20.372-16.019C81.028 11.43 53.77 14.25 53.77 14.25c7.588 2.223 9.496 7.74 9.966 10.768a20.506 20.506 0 0 0-3.535-4.76c-13.49-13.413-43.164 3.318-43.164 3.318l.03.017c-6.41 3.462-16.09 10.323-14.98 19.78 1.647 14.043 29.5 6.18 29.5 6.18s-1.021-.052-2.502-.223c-6.288-.129-10.724-1.703-11.396-4.522-.806-3.385 4.046-7.64 11.75-10.948 3.728 4.834 5.978 10.397 6.559 16.103 1.328 13.035-3.651 25.956 8.475 22.58 5.223-1.456 9.616-4.432 13.095-8.304-4.365 4.23-9.455 6.003-13.38 4.094-5.96-2.904-6.973-13.206-2.254-23.016 4.719-9.809 13.374-15.408 19.333-12.503 3.82 1.861 5.606 6.762 5.156 12.623.224-1.297.383-2.604.475-3.917 5.99-1.046 25.77-5.397 20.415-16.755M72.412 92.614L74.049 78h-6.88L52 92.668h6.178l4.457-4.42h4.455l1.045-3.414h-2.018l3.143-3.117-1.327 10.897z"/></g></svg>