<svg width="190" height="37" viewBox="0 0 190 37" xmlns="http://www.w3.org/2000/svg"><title>eventpop</title><g fill="none" fill-rule="evenodd"><path fill="#DEDFDF" d="M44 8h11.49v1.96h-9.26v7.435h8.922v1.96H46.23v7.772h9.26v1.893H44zM58 8h2.303l7.364 18.396L75.088 8h2.303l-8.729 21.02h-1.99zM79 8h11.49v1.96h-9.26v7.435h8.922v1.96H81.23v7.772h9.26v1.893H79zM95 8h2.778L109.6 25.441V8h2.094v21.02h-2.144L97.027 10.542V29.02H95zM118.798 9.96H114V8h11.625v1.96h-4.799v19.06h-2.028zM136.204 17.733h2.127c1.023 0 3.354-.033 3.354-2.563 0-2.474-2.387-2.506-3.553-2.506h-1.928v5.069zM131 8h6.876c3.895 0 5.346.596 6.482 1.534 1.65 1.365 2.474 3.44 2.474 5.573 0 2.132-.881 4.389-2.218 5.526-1.45 1.223-2.871 1.831-6.14 1.831h-2.27v6.556H131V8zM159.174 25.116c3.811 0 5.658-3.469 5.658-6.169 0-2.73-1.847-6.227-5.715-6.227-3.724 0-5.743 3.184-5.743 6.141 0 3.241 2.19 6.255 5.8 6.255M159.089 8c6.482 0 11.117 5.061 11.117 10.918 0 5.857-4.606 10.918-11.145 10.918-6.625 0-11.061-5.26-11.061-10.662 0-1.393.199-2.957.824-4.493A10.936 10.936 0 0 1 159.089 8M179.069 17.733h2.218c1.023 0 3.354-.033 3.354-2.563 0-2.474-2.387-2.506-3.553-2.506h-2.019v5.069zM174 8h6.832c3.894 0 5.344.596 6.482 1.534 1.65 1.365 2.474 3.44 2.474 5.573 0 2.132-.882 4.389-2.218 5.526-1.45 1.223-2.872 1.831-6.142 1.831h-2.359v6.556H174V8z"/><path d="M17.669 21.782l.093.093c-.029-.031-.058-.063-.089-.093A2.667 2.667 0 0 0 14 21.687a2.666 2.666 0 0 1 3.669.095" fill="#221E1F"/><path d="M14.477 22L4.78 31.695a2.668 2.668 0 0 0 3.772 3.773l7.815-7.815-1.888-1.887A2.665 2.665 0 0 1 14.477 22M17.896 14.78L28.12 4.556A2.67 2.67 0 0 0 28.125.78a2.67 2.67 0 0 0-3.776.004L16 9.134l1.885 1.884a2.668 2.668 0 0 1 .011 3.762" fill="#DEDFDF"/><path d="M14 15l.002.002a2.712 2.712 0 0 0-.001-.001L14 15z" fill="#221E1F"/><path d="M13.015 17.24L6.55 10.78a2.666 2.666 0 0 0-3.77 0v.002a2.665 2.665 0 0 0 0 3.769l4.584 4.58 1.882-1.882a2.67 2.67 0 0 1 3.769-.008" fill="#DEDFDF"/><path d="M13 20.571l.003-.003a2.666 2.666 0 0 0-.003.003" fill="#221E1F"/><path d="M31.849 25.192L25.657 19l-1.885 1.885a2.67 2.67 0 0 1-3.772.003l8.077 8.076a2.669 2.669 0 0 0 3.774.003 2.67 2.67 0 0 0-.002-3.775M19.781 16.328a2.668 2.668 0 0 1 3.775.003l1.886 1.884 5.656-5.659a2.67 2.67 0 0 0-3.776-3.774l-7.54 7.544a2.668 2.668 0 0 0 0 3.774l.003.003a2.67 2.67 0 0 1-.004-3.776" fill="#DEDFDF"/><path d="M23.556 20.554l1.885-1.886-1.886-1.885a2.67 2.67 0 0 0-3.775-.003 2.67 2.67 0 0 0 .003 3.775l.002.001a2.668 2.668 0 0 0 3.771-.002M12.634 20.89a2.666 2.666 0 0 1-3.766-.002L6.98 19 .783 25.197a2.668 2.668 0 1 0 3.772 3.772l8.079-8.079z" fill="#DEDFDF"/><path d="M13.189 17.208a2.682 2.682 0 0 0-.183-.203L13 17l.007.006c.064.065.125.133.182.202" fill="#221E1F"/><path d="M12.655 20.554a2.67 2.67 0 0 0 .003-3.773l-.007-.007a2.669 2.669 0 0 0-3.768.009L7 18.665l1.889 1.887a2.665 2.665 0 0 0 3.766.002M17.974 22a2.667 2.667 0 0 1-.088 3.678L16 27.564l8.895 8.892a2.665 2.665 0 1 0 3.769-3.77L17.974 22z" fill="#DEDFDF"/><path d="M14.104 22a2.243 2.243 0 0 0-.1.096h-.001l-.003.003.005-.005.099-.094" fill="#221E1F"/><path d="M17.554 25.552a2.665 2.665 0 0 0 .088-3.678l-.092-.093a2.665 2.665 0 0 0-3.768-.001l-.005.005a2.667 2.667 0 0 0 .003 3.766l1.888 1.887 1.886-1.886z" fill="#221E1F"/><path d="M17.554 25.552a2.665 2.665 0 0 0 .088-3.678l-.092-.093a2.665 2.665 0 0 0-3.768-.001l-.005.005a2.667 2.667 0 0 0 .003 3.766l1.888 1.887 1.886-1.886z" fill="#DEDFDF"/><path d="M15 15.392a2.67 2.67 0 0 0 3.292-.381l.01-.011-.007.007a2.673 2.673 0 0 1-3.295.385" fill="#221E1F"/><path d="M14.323 15.095a2.67 2.67 0 0 1 .006-3.774l1.883-1.881-5.659-5.659a2.666 2.666 0 1 0-3.772 3.772l7.542 7.542z" fill="#DEDFDF"/><path d="M13.784 11.882a2.67 2.67 0 0 0-.006 3.774l.002.002a2.667 2.667 0 0 0 3.776-.004l.007-.007a2.668 2.668 0 0 0-.011-3.762L15.666 10l-1.882 1.882z" fill="#221E1F"/><path d="M13.784 11.882a2.67 2.67 0 0 0-.006 3.774l.002.002a2.667 2.667 0 0 0 3.776-.004l.007-.007a2.668 2.668 0 0 0-.011-3.762L15.666 10l-1.882 1.882z" fill="#DEDFDF"/></g></svg>