<svg width="196" height="41" viewBox="0 0 196 41" xmlns="http://www.w3.org/2000/svg"><title>metromerce</title><g fill="#DEDFDF" fill-rule="evenodd"><path d="M63.131 33.652V19.228l-6.203 11.061h-1.34L49.36 19.228v14.424H47V15h2.495l6.753 12.109L63.025 15h2.469v18.652zM80.686 26.172a4.934 4.934 0 0 0-1.51-3.202 4.7 4.7 0 0 0-4.9-.906 4.508 4.508 0 0 0-1.434.92 4.68 4.68 0 0 0-1 1.4 5.174 5.174 0 0 0-.46 1.788h9.304zm-4.702 8.04a6.988 6.988 0 0 1-2.838-.565 6.689 6.689 0 0 1-2.2-1.537 6.993 6.993 0 0 1-1.433-2.272A7.414 7.414 0 0 1 69 27.092a7.315 7.315 0 0 1 .507-2.731A6.865 6.865 0 0 1 76.01 20a6.736 6.736 0 0 1 2.83.576 6.68 6.68 0 0 1 2.166 1.537 6.763 6.763 0 0 1 1.381 2.233c.322.843.487 1.737.486 2.639 0 .2 0 .369-.014.526a2.999 2.999 0 0 1-.038.368H71.436c.042.646.203 1.278.474 1.866a4.743 4.743 0 0 0 2.455 2.4 4.29 4.29 0 0 0 1.695.343c.417 0 .833-.058 1.234-.172a5.37 5.37 0 0 0 1.131-.46c.344-.188.658-.427.932-.71a2.91 2.91 0 0 0 .617-.945l2.001.552c-.23.516-.545.99-.933 1.4a6.133 6.133 0 0 1-1.367 1.09 6.973 6.973 0 0 1-1.718.723 7.426 7.426 0 0 1-1.973.245zM92.302 33.602c-.14.072-.324.154-.552.25a8.55 8.55 0 0 1-.775.29c-.309.101-.626.18-.946.236a6.005 6.005 0 0 1-1.062.092 3.503 3.503 0 0 1-2.182-.696c-.614-.464-.921-1.187-.92-2.167v-9.222H84v-1.813h1.865V16h2.313v4.572h3.074v1.813h-3.074v8.516c.035.508.201.876.499 1.104.301.228.671.347 1.05.34.426.006.85-.07 1.248-.222.267-.098.526-.217.775-.356l.552 1.835zM101.251 22.127a5.97 5.97 0 0 0-3.062.902 4.572 4.572 0 0 0-1.878 2.34v8.46H94V20.104h2.153v3.18a6.477 6.477 0 0 1 1.865-2.3 4.63 4.63 0 0 1 2.473-.984h.446c.106 0 .212.007.316.026l-.002 2.101zM105.357 27.162a5.468 5.468 0 0 0 .356 2c.223.59.551 1.132.971 1.602.405.45.896.816 1.444 1.076a4.186 4.186 0 0 0 3.548 0 4.595 4.595 0 0 0 1.46-1.09 5.066 5.066 0 0 0 .983-1.63 5.798 5.798 0 0 0 0-4.001 5.088 5.088 0 0 0-.984-1.626 4.624 4.624 0 0 0-1.459-1.091 4.044 4.044 0 0 0-1.773-.4 3.97 3.97 0 0 0-1.775.4 4.71 4.71 0 0 0-1.444 1.105 5.24 5.24 0 0 0-.97 1.628 5.567 5.567 0 0 0-.357 2.027m4.546 7.067a6.736 6.736 0 0 1-5.002-2.127 7.022 7.022 0 0 1-1.4-2.258 7.462 7.462 0 0 1-.5-2.708 7.328 7.328 0 0 1 .513-2.733 7.158 7.158 0 0 1 1.42-2.26 6.883 6.883 0 0 1 9.982 0 7.306 7.306 0 0 1 1.93 4.992 7.44 7.44 0 0 1-.498 2.709 6.826 6.826 0 0 1-3.614 3.8 6.73 6.73 0 0 1-2.83.585M154.695 26.178a5.025 5.025 0 0 0-.486-1.801 4.863 4.863 0 0 0-1.025-1.401 4.7 4.7 0 0 0-4.9-.906 4.491 4.491 0 0 0-1.433.92 4.662 4.662 0 0 0-1 1.4 5.153 5.153 0 0 0-.458 1.788h9.302zm-4.704 8.04a7.005 7.005 0 0 1-2.838-.565 6.7 6.7 0 0 1-2.2-1.537 7.025 7.025 0 0 1-1.43-2.272 7.399 7.399 0 0 1-.523-2.746 7.316 7.316 0 0 1 .516-2.731c.33-.84.821-1.607 1.445-2.26a6.852 6.852 0 0 1 2.218-1.542 7.024 7.024 0 0 1 2.838-.564 6.68 6.68 0 0 1 4.988 2.119 6.774 6.774 0 0 1 1.38 2.233 7.35 7.35 0 0 1 .485 2.639c0 .2 0 .369-.012.526a2.817 2.817 0 0 1-.04.368h-11.37c.041.646.202 1.278.471 1.866a4.737 4.737 0 0 0 2.457 2.391 4.272 4.272 0 0 0 1.695.342c.417 0 .833-.058 1.234-.172a5.32 5.32 0 0 0 1.131-.461c.344-.188.657-.426.93-.708.267-.272.477-.593.62-.946l2 .552c-.23.516-.546.99-.933 1.4a6.198 6.198 0 0 1-1.366 1.09 7.074 7.074 0 0 1-1.72.724 7.403 7.403 0 0 1-1.976.254zM166.251 22.127a5.948 5.948 0 0 0-3.061.893 4.547 4.547 0 0 0-1.877 2.338v8.46H159V20.104h2.159v3.18a6.457 6.457 0 0 1 1.864-2.3 4.62 4.62 0 0 1 2.47-.984h.446c.106 0 .212.007.316.026l-.004 2.101zM167 27.07a7.46 7.46 0 0 1 .5-2.734 6.67 6.67 0 0 1 1.42-2.247 6.818 6.818 0 0 1 2.2-1.523 6.949 6.949 0 0 1 2.851-.564 6.642 6.642 0 0 1 3.534.906 5.902 5.902 0 0 1 2.245 2.43l-2.259.71a3.747 3.747 0 0 0-1.47-1.51 4.187 4.187 0 0 0-2.104-.54 4.278 4.278 0 0 0-1.785.381 4.202 4.202 0 0 0-1.444 1.064 5.184 5.184 0 0 0-.96 1.601 5.586 5.586 0 0 0-.355 2.023c-.005.691.12 1.377.368 2.023a5.34 5.34 0 0 0 .985 1.641c.401.458.893.83 1.444 1.09a4.056 4.056 0 0 0 1.775.4 4.25 4.25 0 0 0 1.201-.17 4.528 4.528 0 0 0 1.076-.46c.314-.185.601-.41.855-.67.233-.235.412-.517.526-.827l2.245.672a4.86 4.86 0 0 1-.88 1.401c-.384.426-.83.79-1.327 1.077a7.23 7.23 0 0 1-3.652.972 6.854 6.854 0 0 1-5.044-2.127 6.994 6.994 0 0 1-1.433-2.273A7.442 7.442 0 0 1 167 27.07M193.685 26.178a4.984 4.984 0 0 0-.486-1.801 4.863 4.863 0 0 0-1.025-1.401 4.7 4.7 0 0 0-4.9-.906 4.476 4.476 0 0 0-1.432.92 4.648 4.648 0 0 0-1 1.4 5.153 5.153 0 0 0-.459 1.788h9.302zm-4.704 8.04a7.008 7.008 0 0 1-2.838-.565 6.685 6.685 0 0 1-2.2-1.537 7.028 7.028 0 0 1-1.43-2.272 7.413 7.413 0 0 1-.513-2.746 7.314 7.314 0 0 1 .506-2.731c.33-.84.821-1.607 1.445-2.26a6.845 6.845 0 0 1 2.22-1.542 7.016 7.016 0 0 1 2.836-.564 6.756 6.756 0 0 1 5 2.119 6.758 6.758 0 0 1 1.38 2.233 7.35 7.35 0 0 1 .485 2.639c0 .2 0 .369-.012.526a2.817 2.817 0 0 1-.04.368h-11.383c.043.646.203 1.278.472 1.866a4.75 4.75 0 0 0 2.457 2.391 4.272 4.272 0 0 0 1.695.342c.417 0 .833-.058 1.234-.172.393-.11.772-.264 1.13-.461.344-.187.658-.426.931-.708.267-.272.477-.593.62-.946l2 .552c-.23.516-.545.99-.933 1.4a6.175 6.175 0 0 1-1.366 1.09 7.074 7.074 0 0 1-1.72.724 7.398 7.398 0 0 1-1.976.254zM133.915 20a5.739 5.739 0 0 0-4.576 2.287 5.745 5.745 0 0 0-8.237-.978v-.935H119v13.714h2.313v-8.333a3.428 3.428 0 0 1 6.855 0v8.333h2.313v-8.333h.027v-.129a3.424 3.424 0 0 1 6.849.13h.014v8.332h2.311v-8.333A5.756 5.756 0 0 0 133.927 20h-.012zM28.185 29.192H25.67v-8.324l-4.008 4.009-4-4.011v8.324h-2.504V16.162h.81l5.702 5.705 5.705-5.705h.81v13.03zm14.908-13.531l-14.887-2.164L21.547 0l-6.659 13.497L0 15.661l10.774 10.501-2.545 14.826 13.318-6.993 13.315 7-2.542-14.826 10.773-10.508z"/></g></svg>