<svg width="122" height="37" viewBox="0 0 122 37" xmlns="http://www.w3.org/2000/svg"><title>nextzy</title><g fill="#DEDFDF" fill-rule="evenodd"><path d="M39.602 12.354L34.371 6v4.056H25v4.595h9.371v4.056z"/><path d="M36.143 20.052h-11.47V4.565h11.469l6.376 7.744-6.375 7.743zM114.521 0c-2.065 2.604-4.2 5.14-6.263 7.745L102.06 0H52.652c-2.113 2.602-4.293 5.134-6.404 7.737L39.912 0h-21.89v16.073c-1.223-2.386-2.645-4.88-4.109-7.051L7.788 0H0v24.616h6.125v-7.413c0-4.018-.087-7.487-.306-10.774h.175c1.4 2.885 3.369 6.025 5.119 8.693l6.301 9.494h22.498l6.336-7.736 6.404 7.736h7.528L50.047 12.309l6.285-7.634h7.497v19.941h6.65V4.675h6.093v.007h12.775v.03L75.304 21.623v2.993h25.776v-4.6H84.23v-.148L97.622 3.633l7.259 9.008v12.004h6.818V12.641L121.89 0h-7.369zM14.116 31v.569h-1.707v4.856h-.702v-4.856H10V31zM21.547 31v.569h-2.845v1.821h2.712v.569h-2.712v1.897h2.902v.569H18V31zM31.363 36.273a4.887 4.887 0 0 1-1.518.228c-1.897 0-2.845-.942-2.845-2.827 0-1.783.948-2.674 2.845-2.674.544 0 1.05.076 1.518.228v.607a4.042 4.042 0 0 0-1.442-.266c-1.479 0-2.219.702-2.219 2.105 0 1.505.74 2.258 2.219 2.258.494 0 .974-.089 1.442-.266v.607zM36 36.425V31h.702v2.39h3.206V31h.701v5.425h-.701V33.96h-3.206v2.465zM46 36.425V31h.701l3.32 4.371V31h.664v5.425h-.702l-3.319-4.408v4.408zM57.724 35.932c1.294 0 1.942-.732 1.942-2.196 0-1.445-.648-2.167-1.942-2.167-1.323 0-1.984.722-1.984 2.167 0 1.464.661 2.196 1.984 2.196M55 33.758C55 31.92 55.908 31 57.724 31c1.788 0 2.681.92 2.681 2.758 0 1.828-.893 2.743-2.681 2.743-1.816 0-2.724-.915-2.724-2.743M66.702 31v4.856h2.837v.569H66V31zM76.723 35.932c1.295 0 1.943-.732 1.943-2.196 0-1.445-.648-2.167-1.943-2.167-1.322 0-1.984.722-1.984 2.167 0 1.464.662 2.196 1.984 2.196M74 33.758C74 31.92 74.907 31 76.723 31c1.788 0 2.682.92 2.682 2.758 0 1.828-.894 2.743-2.682 2.743-1.816 0-2.723-.915-2.723-2.743M88.362 36.25c-.437.167-.909.25-1.415.25-1.965 0-2.947-.941-2.947-2.826 0-1.783.948-2.674 2.845-2.674.543 0 1.049.076 1.517.228v.606a4.066 4.066 0 0 0-1.441-.265c-1.48 0-2.22.702-2.22 2.105 0 1.505.729 2.258 2.185 2.258.233 0 .491-.031.775-.092v-1.843h.701v2.253zM93 36.425h.702V31H93zM102.548 31v.569h-2.846v1.821h2.713v.569h-2.713v1.897h2.903v.569H99V31zM107.189 36.273v-.645a5.45 5.45 0 0 0 1.844.304c.933 0 1.4-.342 1.4-1.025 0-.581-.344-.872-1.032-.872h-.698c-1.135 0-1.703-.493-1.703-1.479 0-1.037.727-1.556 2.181-1.556.632 0 1.22.076 1.764.228v.645a5.006 5.006 0 0 0-1.764-.304c-.986 0-1.479.329-1.479.987 0 .581.334.872 1.001.872h.698c1.156 0 1.734.493 1.734 1.479 0 1.063-.701 1.594-2.102 1.594-.66 0-1.275-.076-1.844-.228"/></g></svg>