<svg width="170" height="49" viewBox="0 0 170 49" xmlns="http://www.w3.org/2000/svg"><title>odds</title><g fill="#DEDFDF" fill-rule="evenodd"><path d="M62.235 48.811a2.798 2.798 0 0 1-1.955-.806l-5.064-5.131c.194.031.402.045.629.045h14.074c9.986 0 18.111-8.231 18.111-18.348 0-10.118-8.125-18.349-18.111-18.349h-4.227v28.456h-5.809V3.239c0-1.631 1.291-2.908 2.94-2.908h7.096c13.19 0 23.919 10.874 23.919 24.24 0 13.365-10.729 24.24-23.919 24.24h-7.684zm45.089 0c-.718 0-1.464-.309-1.944-.805l-5.065-5.132c.192.031.402.045.628.045h14.075c9.986 0 18.11-8.231 18.11-18.348 0-10.118-8.124-18.349-18.11-18.349h-4.237v28.456h-5.809V3.239c0-1.631 1.291-2.908 2.94-2.908h7.106c13.188 0 23.919 10.874 23.919 24.24 0 13.365-10.731 24.24-23.919 24.24h-7.694zm-82.947.393C11.507 49.204.929 39.078 0 26.277c.983 4.766 3.443 8.873 7.206 11.987 4.093 3.387 9.356 5.252 14.818 5.252 10.394 0 20.917-6.553 20.917-19.074 0-5.027-1.936-9.753-5.45-13.302-3.3-3.336-7.631-5.249-11.883-5.249-8.207 0-13.938 6.324-13.938 15.378 0 6.971 3.866 12.039 8.021 13.882-1.511-.221-3.948-.817-6.304-2.426-4.302-2.938-6.485-7.902-6.485-14.757 0-4.124 1.665-8.535 4.453-11.803C13.754 3.353 18.153 0 25.482 0 31.326 0 37.2 2.546 41.596 6.985c4.613 4.657 7.153 10.857 7.153 17.457 0 13.654-10.933 24.762-24.372 24.762zm129.801 0c-3.947 0-5.578-.977-6.652-1.932l-4.94-4.437c2.212 1 4.808 1.47 8.071 1.47 8.8 0 13.55-5.641 13.55-10.949 0-4.844-2.708-8.122-8.276-10.02-6.916-2.363-10.423-6.522-10.423-12.366 0-3.065 1.222-5.85 3.439-7.841C151.194 1.111 154.368 0 157.889 0c4.658 0 9.196 2.072 9.241 2.092 1.092.494 1.717 1.468 1.717 2.67 0 1.671-1.291 2.982-2.94 2.982-.325 0-.937-.219-1.712-.496-1.509-.54-3.793-1.357-6.306-1.357-4.014 0-6.508 1.996-6.508 5.208 0 2.924 1.938 5.036 5.927 6.452 1.593.558 4.905 1.719 7.731 4.19 3.343 2.924 5.04 6.832 5.04 11.615 0 4.001-1.639 8.004-4.497 10.982a15.667 15.667 0 0 1-11.404 4.866z"/><path d="M153.917 14.534c-.585-.62-1.151-1.488-1.151-3.131 0-2.335 2.123-3.844 5.411-3.844 2.195 0 4.086.673 5.605 1.215 1.003.356 1.793.637 2.412.637.299 0 .576-.039.823-.095l-3.946 3.596c-.584.54-1.372.824-2.282.824-.281 0-.575-.027-.878-.081a10.082 10.082 0 0 0-2.032-.223c-1.824 0-3.004.609-3.866 1.053l-.096.049zM56.133 42.246c-1.644 0-2.931-1.31-2.931-2.982V10.275c0-.778.294-1.54.787-2.04l5.095-5.17a3.347 3.347 0 0 0-.073.671v32.619h11.196c6.144 0 11.141-5.063 11.141-11.288 0-6.223-4.997-11.287-11.141-11.287H67.14V7.889h3.067c9.346 0 16.95 7.707 16.95 17.178 0 9.472-7.604 17.179-16.95 17.179H56.133zm45.098 0c-1.648 0-2.939-1.31-2.939-2.982V10.275c0-.781.296-1.543.794-2.039l5.085-5.16a3.32 3.32 0 0 0-.072.66v32.619h11.206c6.138 0 11.133-5.063 11.133-11.288 0-6.223-4.995-11.287-11.133-11.287h-3.067V7.889h3.067c9.341 0 16.942 7.707 16.942 17.178 0 9.472-7.601 17.179-16.942 17.179h-14.074zm-78.919.66c-5.646 0-10.962-2.069-14.968-5.827C3.252 33.242 1 28.04 1 22.426c0-4.846 1.72-9.482 4.975-13.412A24.63 24.63 0 0 1 15.53 2c-2.459 1.471-4.646 3.582-6.293 6.099-2.068 3.16-3.207 6.842-3.207 10.365 0 6.264 1.791 11.092 5.324 14.349 2.08 1.917 5.805 4.202 11.745 4.202 8.64 0 13.161-6.074 13.161-12.075 0-6.367-5.31-11.747-11.594-11.747-3.067 0-5.958 1.212-8.139 3.414a11.896 11.896 0 0 0-3.337 6.715 18.758 18.758 0 0 1-.063-1.557c0-3.973 1.218-7.567 3.43-10.119 2.317-2.674 5.546-4.087 9.339-4.087 3.973 0 8.019 1.8 11.1 4.939 3.271 3.331 5.072 7.749 5.072 12.442 0 4.587-1.79 9.065-4.91 12.288-3.597 3.715-8.731 5.678-14.846 5.678zm128.633.724c-4.526 0-6.632-.874-8.249-1.694a2.907 2.907 0 0 1-1.597-2.608c0-1.667 1.292-2.973 2.941-2.973.399 0 .831.11 1.215.308l.019.009.136.053c1.138.446 2.427.951 5.535.951 4.539 0 6.58-2.236 6.58-3.824 0-.795-.312-2.245-2.405-3.021a11.875 11.875 0 0 0-.456-.131c-1.302-.356-4.76-1.305-7.855-3.558-3.873-2.818-5.836-6.648-5.836-11.382 0-5.475 2.941-10.476 7.603-13.112-1.791 1.595-3.876 4.402-3.876 8.819 0 6.325 3.745 10.85 11.132 13.451 5.162 1.778 7.566 4.617 7.566 8.934 0 4.741-4.364 9.778-12.453 9.778z"/></g></svg>