<svg width="128" height="61" viewBox="0 0 128 61" xmlns="http://www.w3.org/2000/svg"><title>prontotools</title><g fill="none" fill-rule="evenodd"><path d="M7.966 29.279c.457.094.965.145 1.52.145.94 0 1.797-.177 2.571-.525a5.658 5.658 0 0 0 1.971-1.468c.544-.627.966-1.381 1.268-2.262.303-.88.454-1.852.454-2.914 0-1.037-.23-1.92-.687-2.643-.461-.725-1.256-1.086-2.392-1.086-.772 0-1.496.071-2.172.216L7.966 29.279zm13.14-7.424c0 1.763-.288 3.374-.868 4.834-.579 1.46-1.381 2.724-2.407 3.783-1.025 1.064-2.258 1.89-3.693 2.481-1.436.592-2.997.888-4.689.888-.819 0-1.641-.072-2.462-.219l-1.628 6.553H0l6.01-25.053a32.154 32.154 0 0 1 3.314-.779c1.242-.23 2.586-.343 4.038-.343 1.349 0 2.513.203 3.493.615.976.411 1.779.972 2.407 1.683a6.858 6.858 0 0 1 1.392 2.499c.303.955.452 1.973.452 3.058zM35.555 19.032c-.481-.12-.959-.235-1.432-.344-.468-.108-1.162-.164-2.079-.164-.339 0-.714.032-1.123.092a8.99 8.99 0 0 0-1.013.199l-3.512 14.631H21l4.346-18.034a43.468 43.468 0 0 1 3.492-.96c1.292-.301 2.745-.452 4.364-.452.603 0 1.274.054 2.008.164a7.58 7.58 0 0 1 1.939.524l-1.594 4.344zM57.381 15.302c.41-.12.863-.258 1.358-.417a18.09 18.09 0 0 1 1.665-.434 21.155 21.155 0 0 1 2.064-.325A23.547 23.547 0 0 1 65.057 14c2.825 0 4.771.82 5.846 2.461 1.075 1.642 1.263 3.886.561 6.733l-2.461 10.287H63.61l2.388-10.068a20.53 20.53 0 0 0 .344-1.829c.084-.591.077-1.11-.019-1.556a1.824 1.824 0 0 0-.669-1.087c-.351-.277-.886-.415-1.61-.415-.699 0-1.411.07-2.139.215l-3.509 14.74H53l4.381-18.179zM77.066 9.867L82.676 9 81.3 14.612h6.012l-1.086 4.416h-5.974l-1.594 6.662a7.646 7.646 0 0 0-.253 1.557c-.026.482.034.9.18 1.25.145.35.403.621.778.814.377.196.91.291 1.611.291.58 0 1.143-.057 1.685-.164a12.78 12.78 0 0 0 1.646-.452l.398 4.127c-.724.265-1.507.495-2.354.687-.845.193-1.844.292-3 .292-1.67 0-2.96-.249-3.877-.744-.917-.495-1.572-1.171-1.956-2.027-.387-.856-.556-1.84-.507-2.951.051-1.11.216-2.283.507-3.511l3.551-14.992z" fill="#DEDFDF"/><path d="M95.21 18.563c-.795 0-1.497.229-2.1.687a5.907 5.907 0 0 0-1.521 1.739 8.548 8.548 0 0 0-.923 2.297 9.85 9.85 0 0 0-.308 2.371c0 1.211.194 2.149.581 2.824.385.678 1.085 1.016 2.099 1.016.796 0 1.495-.23 2.101-.689a5.894 5.894 0 0 0 1.518-1.737 8.53 8.53 0 0 0 .923-2.3 9.92 9.92 0 0 0 .31-2.372c0-1.207-.194-2.147-.579-2.823-.386-.675-1.086-1.013-2.101-1.013m-2.679 15.495c-1.281 0-2.388-.194-3.333-.579-.939-.387-1.72-.929-2.333-1.629a7.018 7.018 0 0 1-1.394-2.481c-.313-.953-.471-2.009-.471-3.167 0-1.448.235-2.897.705-4.346a12.43 12.43 0 0 1 2.082-3.908 11.125 11.125 0 0 1 3.369-2.844C92.482 14.368 94.003 14 95.72 14c1.251 0 2.355.193 3.311.579.951.386 1.738.929 2.35 1.629a7.057 7.057 0 0 1 1.395 2.48c.316.953.472 2.011.472 3.168 0 1.449-.23 2.898-.688 4.346a12.676 12.676 0 0 1-2.026 3.91c-.893 1.158-2.011 2.105-3.351 2.841-1.34.736-2.891 1.105-4.652 1.105M32 33.673c.542-.434 1.183-.955 1.912-1.566 1.326-1.112 3.615-2.051 6.267-3.137 2.791-1.144 5.951-2.441 8.735-4.229 3.471-2.227 5.538-6.905 6.524-9.741-2.288 1.462-4.699 2.415-7.216 3.411-2.646 1.047-5.38 2.13-8.293 3.904-4.317 2.632-6.795 8.147-7.929 11.358M39.409 20.944c3.039-1.849 5.841-2.958 8.551-4.03.982-.39 1.947-.775 2.894-1.185a6.414 6.414 0 0 0-1.88-1.15c-.953-.386-2.055-.579-3.31-.579-1.715 0-3.234.368-4.565 1.103a11.19 11.19 0 0 0-3.367 2.844 12.44 12.44 0 0 0-2.079 3.909A14.038 14.038 0 0 0 35 25.042c1.211-1.583 2.667-3.034 4.409-4.098M49.924 25.589c-2.913 1.873-6.151 3.199-9.008 4.371-1.471.605-2.821 1.159-3.916 1.706a6.357 6.357 0 0 0 1.891 1.183c.94.385 2.049.579 3.33.579 1.764 0 3.314-.369 4.651-1.105a10.653 10.653 0 0 0 3.35-2.841 12.555 12.555 0 0 0 2.027-3.911c.274-.857.454-1.712.565-2.571-.839.996-1.8 1.891-2.89 2.589M65.595 46.851v-5.005H64v-2.213h1.595V37h2.533v2.633h1.955v2.213h-1.955v4.327c0 .618.32 1.077.877 1.077.379 0 .738-.139.878-.299l.538 1.934c-.379.34-1.056.618-2.113.618-1.775 0-2.713-.917-2.713-2.652M82.559 44.045c0-1.495-.878-2.792-2.473-2.792-1.576 0-2.452 1.297-2.452 2.792 0 1.516.876 2.812 2.452 2.812 1.595 0 2.473-1.296 2.473-2.812m-7.559 0C75 41.314 76.915 39 80.086 39c3.19 0 5.105 2.314 5.105 5.045s-1.915 5.065-5.105 5.065c-3.171 0-5.086-2.334-5.086-5.065M98.558 44.045c0-1.495-.878-2.792-2.473-2.792-1.575 0-2.452 1.297-2.452 2.792 0 1.516.877 2.812 2.452 2.812 1.595 0 2.473-1.296 2.473-2.812m-7.558 0C91 41.314 92.914 39 96.085 39c3.191 0 5.105 2.314 5.105 5.045s-1.914 5.065-5.105 5.065c-3.171 0-5.085-2.334-5.085-5.065M111 47.615l1.098-1.835c.717.678 2.133 1.336 3.329 1.336 1.096 0 1.615-.418 1.615-1.017 0-1.575-5.702-.278-5.702-4.067 0-1.616 1.395-3.032 3.947-3.032 1.615 0 2.912.558 3.87 1.316l-1.017 1.795c-.579-.598-1.675-1.116-2.853-1.116-.916 0-1.516.398-1.516.937 0 1.415 5.724.219 5.724 4.107 0 1.775-1.516 3.071-4.187 3.071-1.676 0-3.29-.558-4.308-1.495M125.347 8l-.265 3.403 2.655 2.147-3.319.8-1.222 3.188-1.787-2.909-3.409-.177 2.215-2.598-.885-3.297 3.155 1.303zM114.539 0l.965 1.621 1.883.124-1.244 1.419.464 1.828-1.733-.744-1.596 1.006.172-1.878L112 2.169l1.84-.417zM105.147 7l2.068 1.585 2.478-.805-.868 2.457 1.531 2.108-2.605-.066-1.532 2.108-.741-2.498-2.478-.806 2.146-1.477zM109.823 23h-.001l-9.771 36.308a1.463 1.463 0 1 0 2.827.761l9.772-36.314-2.827-.755z" fill="#DEDFDF"/><path d="M113.851 14.05a1.464 1.464 0 0 0-1.794 1.034L110 22.727l2.829.756 2.055-7.638a1.464 1.464 0 0 0-1.033-1.794" fill="#6B6D6D"/></g></svg>