<svg width="98" height="41" viewBox="0 0 98 41" xmlns="http://www.w3.org/2000/svg"><title>sixnetwork</title><g fill="#DEDFDF" fill-rule="evenodd"><path d="M64.319 13c.179 0 .32.148.32.337a.326.326 0 0 1-.32.337c-.179 0-.319-.148-.319-.337 0-.189.14-.337.319-.337M68.873 11.723c0-.719-.55-1.307-1.239-1.307-.681 0-1.231.588-1.248 1.307V14.06a.19.19 0 0 1-.041.095.173.173 0 0 1-.148.078h-.049a.212.212 0 0 1-.131-.112c-.009-.009-.009-.018-.009-.026 0-.009-.008-.018-.008-.018V10.208c0-.112.082-.208.197-.208.107 0 .189.096.189.208v.407A1.6 1.6 0 0 1 67.634 10c.903 0 1.634.779 1.634 1.723v2.303a.2.2 0 0 1-.198.207.2.2 0 0 1-.197-.207v-2.303zM71.419 11.792h3.045c-.131-.796-.772-1.376-1.51-1.376-.755 0-1.388.571-1.535 1.376m-.419.337c0-1.177.87-2.129 1.954-2.129 1.034 0 1.855.866 1.937 1.974v.034a.19.19 0 0 1-.197.191h-3.3c.041.926.731 1.627 1.56 1.627.533 0 1.026-.294 1.297-.77a.186.186 0 0 1 .262-.07c.091.07.124.191.066.295-.345.58-.944.961-1.625.961-1.084 0-1.954-.952-1.954-2.113M76.823 9.991c0 .104-.099.208-.197.208h-.517v3.09c0 .208.196.312.295.312.099 0 .205.113.205.217 0 .103-.106.207-.205.207-.402 0-.706-.311-.706-.736v-3.09h-.5c-.198 0-.198-.104-.198-.208s0-.208.198-.208h.5V8.208c0-.104.099-.208.197-.208.107 0 .214.104.214.208v1.575h.517c.098 0 .197.104.197.208M80.608 14.17c-.041-.017-.066-.052-.082-.095l-1.511-3.792a.216.216 0 0 1 .099-.268.19.19 0 0 1 .254.113l1.338 3.341.928-2.329a.218.218 0 0 1 .189-.13.22.22 0 0 1 .197.13l.927 2.33 1.33-3.342c.04-.104.164-.156.254-.113a.21.21 0 0 1 .107.268l-1.502 3.775a.23.23 0 0 1-.074.103c-.033.027-.065.044-.1.044h-.04c-.065-.009-.14-.06-.155-.13l-.01-.009-.934-2.346-.928 2.338s-.008.008-.008.017a.195.195 0 0 1-.173.13c-.024 0-.05-.009-.073-.017-.017 0-.025-.009-.033-.018M87.904 13.826c.821 0 1.511-.762 1.511-1.705 0-.944-.69-1.714-1.511-1.714s-1.51.77-1.51 1.714c0 .943.689 1.705 1.51 1.705m0-3.826c1.059 0 1.905.97 1.905 2.121s-.846 2.121-1.905 2.121c-1.05 0-1.904-.97-1.904-2.121S86.854 10 87.904 10M91 10.208c0-.121.09-.208.205-.208.099 0 .189.087.189.208v.935a.67.67 0 0 1 .057-.104c.304-.502.838-1.039 1.609-1.039a.2.2 0 0 1 .197.208c0 .113-.09.208-.197.208-.525 0-.886.312-1.165.692a3.926 3.926 0 0 0-.485.987c-.016.035-.016.052-.016.07v1.861c0 .121-.09.207-.189.207a.2.2 0 0 1-.205-.207v-3.818zM95 8.208c0-.112.09-.208.197-.208.115 0 .205.096.205.208v4.078l2.381-2.502c.082-.087.197-.087.279 0 .082.078.082.207 0 .294l-1.552 1.636 1.56 2a.226.226 0 0 1-.016.303.204.204 0 0 1-.132.043c-.057 0-.123-.017-.156-.078l-1.543-1.965-.821.866v.97c0 .112-.09.207-.205.207-.107 0-.197-.095-.197-.207V8.208z"/><path d="M77.008 13.35c.07-.07.072-.219-.002-.292-.073-.074-.228-.078-.298-.008-.068.068-.271.131-.418-.002l-.29.29c.3.29.727.293 1.008.012M57.629 11.9L57 11.441 62.433 4l.629.459zM62.422 21.885L57 14.459l.629-.459 5.422 7.426z"/><path d="M63.846 4.471a1.626 1.626 0 1 1 .001-3.251 1.626 1.626 0 0 1-.001 3.251m0-4.471a2.846 2.846 0 1 0 0 5.693 2.846 2.846 0 0 0 0-5.693M55.847 14.471a1.626 1.626 0 1 1 .001-3.251 1.626 1.626 0 0 1-.001 3.251m0-4.471a2.847 2.847 0 1 0 0 5.693 2.847 2.847 0 0 0 0-5.693M63.846 25.471a1.625 1.625 0 1 1 0-3.25 1.625 1.625 0 0 1 0 3.25m0-4.471a2.846 2.846 0 1 0 0 5.693 2.846 2.846 0 0 0 0-5.693M27 16.255h6.254V10H27zM27 40.736h6.254V20H27zM50.98 25.528l5.042-8.038h-7.216l-1.392 2.352L41.24 10H34l9.337 15.405L34 40.81h7.44l5.842-9.837 5.893 9.837h7.39zM16.82 22.31H8.206s-2.197-.849-2.197-3.171 2.422-3.096 2.422-3.096h14.906V10l-14.78.25s-6.959-.067-8.478 7.633c-.11.755-.156 1.948.212 3.467v.001c1.074 4.036 4.107 5.855 5.98 6.613a6.893 6.893 0 0 0 2.155.488h6.746s3.321.075 3.321 3.321c.075 2.671-2.846 2.996-2.846 2.996H1.715v6.042h14.028c1.588-.094 7.195-.874 8.661-7.132a9.594 9.594 0 0 0 .131-1.607c0-8.564-7.715-9.762-7.715-9.762"/></g></svg>