<svg width="184" height="48" viewBox="0 0 184 48" xmlns="http://www.w3.org/2000/svg"><title>skooldio</title><g fill="#DEDFDF" fill-rule="evenodd"><path d="M39.411 36.459l-16.235 9.334a3.598 3.598 0 0 1-3.591 0L3.35 36.459a3.602 3.602 0 0 1-1.806-3.122V14.692c0-1.289.689-2.48 1.806-3.122l16.235-9.335a3.603 3.603 0 0 1 3.591 0l16.235 9.335a3.6 3.6 0 0 1 1.807 3.122v18.645a3.601 3.601 0 0 1-1.807 3.122M19.517.498L1.875 10.643A3.74 3.74 0 0 0 0 13.884v20.261a3.74 3.74 0 0 0 1.875 3.241L19.517 47.53a3.74 3.74 0 0 0 3.727 0l17.643-10.143a3.74 3.74 0 0 0 1.875-3.241V13.884a3.739 3.739 0 0 0-1.875-3.241L23.244.498a3.736 3.736 0 0 0-3.727 0"/><path d="M22.54 23.085c-.96.553-1.711 1.849-1.711 2.953v1.489c0 .68.281 1.232.772 1.513.49.282 1.109.25 1.701-.091l13.27-7.63a1.606 1.606 0 1 0 .846-2.97c-.891 0-1.614.72-1.614 1.608 0 .016.005.032.005.049l-13.27 7.63a.615.615 0 0 1-.166.07.634.634 0 0 1-.021-.178v-1.49c0-.572.452-1.351.949-1.638l13.168-7.571c.591-.34.929-.86.929-1.422 0-.564-.338-1.082-.929-1.422l-13.168-7.57c-.959-.553-2.463-.553-3.423 0l-13.167 7.57C5.751 14.538 5 15.834 5 16.938v6.04c0 1.103.751 2.4 1.711 2.952l13.167 7.57c.96.553 2.463.553 3.423 0l13.168-7.57a.662.662 0 0 1 .166-.072c.01.036.021.095.021.18v6.04c0 .57-.452 1.352-.949 1.638l-13.168 7.572c-.497.285-1.402.285-1.899 0L7.473 33.716c-.498-.286-.95-1.066-.95-1.637v-1.492c0-.083.011-.142.021-.18.037.01.093.03.167.074l12.524 7.199a1.61 1.61 0 0 0 3.216-.111 1.61 1.61 0 0 0-1.614-1.607c-.365 0-.698.125-.969.33L7.474 29.166c-.591-.34-1.211-.374-1.703-.092-.49.283-.771.835-.771 1.513v1.492c0 1.103.751 2.399 1.711 2.95l13.167 7.572c.48.276 1.096.414 1.711.414.616 0 1.233-.138 1.713-.414l13.167-7.571c.96-.552 1.712-1.848 1.712-2.952v-6.041c0-.68-.282-1.231-.771-1.514-.492-.282-1.112-.25-1.703.09L22.54 32.185c-.498.285-1.402.285-1.899 0L7.474 24.613c-.498-.285-.95-1.066-.95-1.637v-6.041c0-.571.452-1.351.95-1.637l13.167-7.572c.497-.286 1.401-.285 1.899 0l13.167 7.572a.61.61 0 0 1 .146.108.7.7 0 0 1-.146.109l-13.167 7.57zM67.439 18.77a.948.948 0 0 1-.67.25H64.42c-.356 0-.636-.067-.838-.2a1.766 1.766 0 0 1-.535-.599c-.38-.621-.93-1.12-1.642-1.496-.715-.377-1.69-.566-2.917-.566-1.206 0-2.224.243-3.05.731-.827.488-1.24 1.144-1.24 1.963 0 .666.195 1.18.586 1.547.39.366 1 .67 1.828.915.826.245 2.177.564 4.055.965 2.702.576 4.657 1.385 5.865 2.428 1.208 1.042 1.81 2.474 1.81 4.29a5.849 5.849 0 0 1-1.173 3.577c-.782 1.053-1.904 1.88-3.37 2.478-1.463.598-3.177.897-5.143.897-1.677 0-3.241-.264-4.693-.798-1.452-.53-2.626-1.291-3.52-2.278-.893-.986-1.373-2.112-1.44-3.376a.749.749 0 0 1 .235-.649.95.95 0 0 1 .67-.25h2.345c.358 0 .643.067.856.2.21.133.385.333.519.599.38.731.933 1.315 1.658 1.746.727.433 1.85.649 3.37.649 1.475 0 2.704-.232 3.686-.699.984-.465 1.475-1.163 1.475-2.096 0-.531-.19-.958-.57-1.28-.38-.32-.915-.586-1.608-.799-.693-.209-1.743-.481-3.151-.814a47.847 47.847 0 0 1-2.18-.498c-2.345-.577-4.037-1.365-5.077-2.362-1.038-.999-1.558-2.462-1.558-4.392 0-1.308.386-2.483 1.156-3.525.772-1.043 1.827-1.857 3.167-2.446 1.34-.587 2.838-.882 4.492-.882 1.877 0 3.503.316 4.877.949 1.374.632 2.418 1.426 3.135 2.379.713.952 1.105 1.885 1.172 2.793.022.266-.055.482-.234.649M76.358 34.72a.855.855 0 0 1-.268.631.87.87 0 0 1-.638.266h-2.546a.868.868 0 0 1-.638-.266.855.855 0 0 1-.268-.631V12.897c0-.243.089-.454.268-.631a.872.872 0 0 1 .638-.266h2.546c.247 0 .458.088.638.266a.858.858 0 0 1 .268.631v10.48l5.597-4.492c.245-.178.458-.316.637-.415.179-.1.402-.151.671-.151h3.418c.223 0 .414.079.57.234a.77.77 0 0 1 .235.565c0 .245-.123.465-.37.665l-7.809 6.254 8.546 8.151c.223.221.336.432.336.631a.768.768 0 0 1-.234.566.786.786 0 0 1-.569.232h-3.252c-.47 0-.928-.188-1.375-.565l-6.401-6.055v5.723zM105.927 27.015c0 .578-.021 1.132-.067 1.664a7.895 7.895 0 0 1-1.241 3.692c-.714 1.11-1.692 1.985-2.932 2.627-1.24.643-2.654.965-4.239.965-1.587 0-3.001-.322-4.241-.965-1.239-.642-2.218-1.517-2.932-2.627a7.895 7.895 0 0 1-1.241-3.692c-.023-.267-.034-.82-.034-1.664 0-.865.011-1.429.034-1.695.113-1.376.524-2.618 1.241-3.726.714-1.109 1.693-1.985 2.932-2.629 1.24-.642 2.654-.965 4.241-.965 1.585 0 2.999.323 4.239.965 1.24.644 2.218 1.52 2.932 2.629.717 1.108 1.128 2.35 1.241 3.726.046.531.067 1.097.067 1.695m-11.212-4.224c-.748.532-1.19 1.43-1.324 2.694-.022.223-.032.721-.032 1.498s.01 1.275.032 1.497c.134 1.263.576 2.162 1.324 2.694.749.532 1.66.798 2.733.798 1.072 0 1.982-.266 2.73-.798.749-.532 1.19-1.431 1.325-2.694.044-.444.066-.942.066-1.497 0-.553-.022-1.053-.066-1.498-.135-1.264-.576-2.162-1.325-2.694-.748-.532-1.658-.798-2.73-.798-1.073 0-1.984.266-2.733.798M125.927 27.015c0 .578-.022 1.132-.068 1.664a7.893 7.893 0 0 1-1.24 3.692c-.715 1.11-1.692 1.985-2.933 2.627-1.24.643-2.653.965-4.238.965-1.587 0-3.001-.322-4.241-.965-1.239-.642-2.218-1.517-2.933-2.627a7.893 7.893 0 0 1-1.24-3.692c-.023-.267-.034-.82-.034-1.664 0-.865.011-1.429.034-1.695.112-1.376.524-2.618 1.24-3.726.715-1.109 1.694-1.985 2.933-2.629 1.24-.642 2.654-.965 4.241-.965 1.585 0 2.998.323 4.238.965 1.241.644 2.218 1.52 2.933 2.629.716 1.108 1.128 2.35 1.24 3.726.046.531.068 1.097.068 1.695m-11.212-4.224c-.748.532-1.19 1.43-1.324 2.694-.022.223-.032.721-.032 1.498s.01 1.275.032 1.497c.134 1.263.576 2.162 1.324 2.694.749.532 1.66.798 2.733.798 1.072 0 1.981-.266 2.73-.798.749-.532 1.19-1.431 1.324-2.694.045-.444.067-.942.067-1.497 0-.553-.022-1.053-.067-1.498-.134-1.264-.575-2.162-1.324-2.694-.749-.532-1.658-.798-2.73-.798-1.073 0-1.984.266-2.733.798M133.09 35.35a.87.87 0 0 1-.638.266h-2.546a.866.866 0 0 1-.637-.266.857.857 0 0 1-.269-.631V12.897c0-.244.09-.454.269-.632a.873.873 0 0 1 .637-.265h2.546c.247 0 .458.088.638.265a.86.86 0 0 1 .268.632v21.822a.856.856 0 0 1-.268.631M150.569 12.897c0-.243.089-.454.269-.631a.867.867 0 0 1 .635-.266h2.548c.247 0 .458.088.636.266a.85.85 0 0 1 .268.631V34.72a.847.847 0 0 1-.268.63.863.863 0 0 1-.636.267h-2.548a.864.864 0 0 1-.635-.267.851.851 0 0 1-.269-.63v-.766c-.469.532-1.117.998-1.943 1.396-.828.399-1.867.599-3.118.599-1.453 0-2.732-.36-3.837-1.08a7.566 7.566 0 0 1-2.599-2.861 9.152 9.152 0 0 1-1.038-3.876L138 26.968l.034-1.163a9.148 9.148 0 0 1 1.038-3.877 7.596 7.596 0 0 1 2.599-2.861c1.105-.72 2.384-1.08 3.837-1.08 1.228 0 2.257.2 3.082.598.828.399 1.487.865 1.979 1.397v-7.085zm-7.089 17.831c.748.819 1.76 1.231 3.034 1.231 1.116 0 2.044-.328 2.782-.981.736-.656 1.16-1.57 1.273-2.746.044-.443.067-.865.067-1.264s-.023-.82-.067-1.263c-.113-1.131-.542-2.036-1.291-2.711-.75-.678-1.67-1.016-2.764-1.016-1.14 0-2.078.333-2.817.998-.737.665-1.172 1.685-1.306 3.061a9.634 9.634 0 0 0-.034.931c0 1.686.374 2.94 1.123 3.76zM163.426 12.265a.861.861 0 0 1 .267.633v2.595a.857.857 0 0 1-.267.631.877.877 0 0 1-.638.266h-2.882a.877.877 0 0 1-.637-.266.863.863 0 0 1-.269-.631v-2.595c0-.245.091-.454.269-.633a.88.88 0 0 1 .637-.265h2.882a.88.88 0 0 1 .638.265m-.168 23.085a.87.87 0 0 1-.638.267h-2.547a.866.866 0 0 1-.636-.267.852.852 0 0 1-.269-.631V19.217c0-.243.089-.454.269-.632a.872.872 0 0 1 .636-.265h2.547c.247 0 .458.088.638.265a.862.862 0 0 1 .268.632v15.502a.855.855 0 0 1-.268.631M183.927 27.015c0 .578-.022 1.132-.068 1.664a7.893 7.893 0 0 1-1.24 3.692c-.715 1.11-1.692 1.985-2.933 2.627-1.24.643-2.654.965-4.239.965-1.586 0-3-.322-4.24-.965-1.239-.642-2.218-1.517-2.933-2.627a7.893 7.893 0 0 1-1.24-3.692c-.023-.267-.034-.82-.034-1.664 0-.865.011-1.429.034-1.695.112-1.376.524-2.618 1.24-3.726.715-1.109 1.694-1.985 2.933-2.629 1.24-.642 2.654-.965 4.24-.965 1.585 0 2.999.323 4.239.965 1.241.644 2.218 1.52 2.933 2.629.716 1.108 1.128 2.35 1.24 3.726.046.531.068 1.097.068 1.695m-11.212-4.224c-.748.532-1.19 1.43-1.324 2.694-.022.223-.032.721-.032 1.498s.01 1.275.032 1.497c.134 1.263.576 2.162 1.324 2.694.749.532 1.66.798 2.732.798 1.073 0 1.982-.266 2.731-.798.749-.532 1.19-1.431 1.324-2.694.045-.444.067-.942.067-1.497 0-.553-.022-1.053-.067-1.498-.134-1.264-.575-2.162-1.324-2.694-.749-.532-1.658-.798-2.731-.798-1.072 0-1.983.266-2.732.798"/></g></svg>