<svg width="228" height="65" viewBox="0 0 228 65" xmlns="http://www.w3.org/2000/svg" xmlns:xlink="http://www.w3.org/1999/xlink"><title>taskworld</title><defs><path id="a" d="M0 .135h220.912v64.852H0z"/></defs><g fill="none" fill-rule="evenodd"><path fill="#DEDFDF" d="M222.835 29v-2.667H222V26h2v.333h-.838V29h-.327M227.618 29v-2.468L226.576 29h-.156l-1.038-2.468V29H225v-3h.546l.952 2.259.953-2.259H228v3h-.382M74.505 26h-9.01a.498.498 0 0 0-.495.5v1.331c0 .277.221.5.495.5h3.262V38.5c0 .276.221.5.495.5h1.477a.498.498 0 0 0 .495-.5V28.332h3.28a.498.498 0 0 0 .496-.5V26.5c0-.276-.222-.5-.495-.5M84.247 34.005l1.738-4.593 1.727 4.593h-3.465zm3.062-7.692a.48.48 0 0 0-.444-.313h-1.773a.48.48 0 0 0-.444.314l-4.614 11.999a.522.522 0 0 0 .048.467c.089.138.238.22.397.22h1.634a.48.48 0 0 0 .446-.315l.895-2.348h5.066l.896 2.348a.48.48 0 0 0 .445.315h1.66a.49.49 0 0 0 .479-.5.514.514 0 0 0-.11-.319L87.31 26.313zM104.424 31.064c-1.56-.412-2.507-.715-2.507-1.436 0-.816.787-1.365 1.958-1.365 1.248 0 2.346.44 3.091 1.238.097.105.239.136.382.16a.504.504 0 0 0 .373-.178l.897-1.065a.475.475 0 0 0-.024-.642c-1.131-1.161-2.727-1.776-4.612-1.776-2.668 0-4.605 1.563-4.605 3.716 0 2.616 2.406 3.253 4.34 3.764 1.7.45 2.742.774 2.742 1.734 0 .736-.608 1.523-2.315 1.523-1.752 0-2.879-.939-3.395-1.498a.504.504 0 0 0-.765.027l-.879 1.1a.474.474 0 0 0 .02.62c.839.919 2.379 2.014 4.964 2.014 3.621 0 4.911-2.02 4.911-3.908 0-2.819-2.645-3.518-4.576-4.028M121.772 32.206l4.655-5.375a.507.507 0 0 0 .078-.537.494.494 0 0 0-.45-.294h-1.848a.493.493 0 0 0-.376.175l-4.37 5.176v-4.85c0-.277-.22-.501-.494-.501h-1.473a.497.497 0 0 0-.494.5v12c0 .276.22.5.494.5h1.473a.497.497 0 0 0 .494-.5v-3.841l.688-.79 4.125 4.953a.491.491 0 0 0 .377.178h1.855a.502.502 0 1 0 .271-.919l-5.005-5.875M148.511 26h-1.619a.492.492 0 0 0-.473.372l-2.121 8.209-2.21-8.213a.493.493 0 0 0-.473-.368h-1.214c-.22 0-.414.15-.472.368l-2.212 8.219-2.137-8.216a.492.492 0 0 0-.473-.371h-1.618a.484.484 0 0 0-.391.2.51.51 0 0 0-.08.437l3.343 12a.49.49 0 0 0 .47.363h1.582a.49.49 0 0 0 .472-.368L141 30.719l2.115 7.913a.491.491 0 0 0 .472.368h1.582a.49.49 0 0 0 .47-.364l3.343-11.999a.51.51 0 0 0-.079-.438.484.484 0 0 0-.39-.199M162 36.74c-2.172 0-3.632-1.704-3.632-4.24 0-2.536 1.46-4.24 3.631-4.24 2.172 0 3.632 1.704 3.632 4.24 0 2.536-1.46 4.24-3.632 4.24zM162 26c-3.477 0-6 2.733-6 6.5s2.523 6.5 6 6.5 6-2.733 6-6.5-2.523-6.5-6-6.5zM182.505 30.117c0 1.078-.704 1.802-1.751 1.802h-2.449v-3.587h2.449c1.063 0 1.75.7 1.75 1.785zm-.215 3.841c1.37-.423 2.57-1.682 2.57-3.84 0-2.425-1.62-4.118-3.94-4.118h-4.457c-.256 0-.463.224-.463.5v12c0 .276.207.5.463.5h1.38c.255 0 .462-.224.462-.5v-4.268h1.497l2.691 4.537c.085.144.232.231.39.231h1.63c.006-.002.014-.001.024 0 .255 0 .463-.224.463-.5a.517.517 0 0 0-.166-.384l-2.544-4.158zM201.504 36.667h-5.033V26.5c0-.276-.222-.5-.496-.5h-1.48a.498.498 0 0 0-.495.5v12c0 .276.222.5.496.5h7.008a.498.498 0 0 0 .496-.5v-1.332c0-.277-.222-.5-.496-.5"/><mask id="b" fill="#fff"><use xlink:href="#a"/></mask><path d="M218.445 32.568c0 2.002-1.229 4.021-3.975 4.021h-2.042v-8.062h2.042c2.416 0 3.975 1.586 3.975 4.04zm-3.975-6.296h-3.972a.483.483 0 0 0-.483.484v11.605c0 .268.215.484.483.484h3.972c3.793 0 6.442-2.58 6.442-6.277 0-3.648-2.708-6.296-6.442-6.296zM44.875 41.06c-.833.925-2.435 2.009-5.17 2.009h-9.821c-2.735 0-4.28-1.084-5.113-2.01-1.613-1.794-1.536-4.077-1.536-4.72v-6.662c0-.948-.234-1.62-.676-2.056-.634-.624-1.724-.707-2.093-.694-.029 0-.042.048-.07.048H11.59c-1.277 0-2.312-1.128-2.312-2.403 0-1.275 1.035-2.404 2.312-2.404h8.774c.527 0 3.308.077 5.375 2.064.953.917 2.1 2.644 2.1 5.445v7c0 .199 0 .917.373 1.32.372.399 1.11.474 1.671.474h9.821c.562 0 1.356-.075 1.727-.475.373-.402.43-1.13.43-1.355V24.569a2.302 2.302 0 1 1 4.603 0v11.77c0 .656.022 2.926-1.59 4.72zM18.63 38.46c0 1.284-1.127 2.329-2.407 2.329-1.279 0-2.406-1.045-2.406-2.329v-4.608c0-1.284 1.127-2.33 2.406-2.33 1.28 0 2.407 1.046 2.407 2.33v4.608zm13.813-11.558c0-1.284 1.023-2.329 2.302-2.329 1.279 0 2.302 1.045 2.302 2.329v4.608c0 1.284-1.023 2.33-2.302 2.33-1.28 0-2.302-1.046-2.302-2.33v-4.608zm21.732-11.66L29.35.547a2.934 2.934 0 0 0-2.995-.002L1.514 15.215A3.081 3.081 0 0 0 .015 17.87L0 47.235c0 1.096.57 2.109 1.496 2.657l24.826 14.696c.926.549 2.068.55 2.995.002l24.84-14.67a3.081 3.081 0 0 0 1.5-2.655l.015-29.365c0-1.096-.57-2.109-1.496-2.657z" fill="#DEDFDF" mask="url(#b)"/></g></svg>