<svg width="507" height="142" viewBox="0 0 507 142" xmlns="http://www.w3.org/2000/svg"><title>telenordigital</title><g fill="#DEDFDF" fill-rule="evenodd"><path d="M159.03 54.481h-4.65c-.448 0-.448-.828-.448-1.468 0-.639 0-1.465.448-1.465h4.65v-8.169c0-.379 1.025-.379 1.728-.379.827 0 1.726 0 1.726.379v8.169h7.969c.383 0 .383.702.383 1.465 0 .767 0 1.468-.383 1.468h-7.97v25.115c0 1.02.063 2.934 2.549 2.934h5.357c.385 0 .385.767.385 1.398 0 .641 0 1.405-.385 1.405h-6.062c-4.141 0-5.296-2.488-5.296-6.123V54.481zM195.215 63.996c0-7.19-4.595-9.87-9.585-9.87-4.912 0-9.252 2.616-9.252 9.87v3.506h18.837v-3.506zm-18.837 6.634v3.312c0 7.211 4.782 9.954 9.82 9.954 4.933 0 7.932-1.405 10.42-2.743.385-.191.829.638 1.145 1.211.322.574.765 1.404.322 1.661-3.255 1.849-5.872 2.934-11.76 2.934-8.415 0-13.393-4.722-13.393-12.76V63.608c0-8.269 4.274-12.608 12.698-12.608 8.432 0 13.025 4.211 13.025 12.419v7.211h-22.277zM204.932 79.869V39.383c0-.383 1.085-.383 1.727-.383.634 0 1.719 0 1.719.383v40.871c0 1.021.065 2.934 2.549 2.934h2.237c.38 0 .38.767.38 1.399 0 .641 0 1.404-.38 1.404h-2.937c-4.145 0-5.295-2.487-5.295-6.122M237.265 63.996c0-7.19-4.6-9.87-9.637-9.87-4.915 0-9.25 2.616-9.25 9.87v3.506h18.887v-3.506zm-18.887 6.634v3.312c0 7.211 4.783 9.954 9.824 9.954 4.974 0 7.974-1.405 10.46-2.743.386-.191.832.638 1.153 1.211.317.574.762 1.404.317 1.661-3.252 1.849-5.871 2.934-11.804 2.934-8.418 0-13.396-4.722-13.396-12.76V63.608c0-8.269 4.276-12.608 12.696-12.608 8.485 0 13.08 4.211 13.08 12.419v7.211h-22.33zM268.518 86.447c-.64 0-1.721 0-1.721-.381V63.42c0-7.188-2.683-9.293-7.655-9.293-4.916 0-9.761 7.696-9.761 7.696v24.243c0 .381-1.09.381-1.723.381-.641 0-1.726 0-1.726-.381V51.767c0-.383 1.085-.383 1.726-.383.634 0 1.659 0 1.659.383v6.125c1.27-1.66 4.273-6.892 10.655-6.892 6.634 0 10.267 4.148 10.267 10.632v24.434c0 .381-1.082.381-1.721.381M289.204 54.126c-4.911 0-9.83 2.615-9.83 9.87v9.945c0 7.211 4.853 9.955 9.83 9.955 4.975 0 9.949-2.616 9.949-9.955v-9.945c0-7.19-4.908-9.87-9.95-9.87m-13.271 20.389V63.419c0-8.272 4.846-12.419 13.272-12.419 8.484 0 13.347 4.211 13.347 12.419v11.096c0 8.233-4.863 12.444-13.347 12.444-8.426 0-13.272-4.148-13.272-12.444M313.439 58.528c-1.53 1.892-3.125 4.188-3.125 4.188v22.966c0 .382-1.086.382-1.723.382-.64 0-1.66 0-1.66-.382V51.383c0-.383 1.08-.383 1.725-.383.636 0 1.658 0 1.658.383v7.72s1.784-2.551 2.42-3.446c2.487-3.379 4.088-4.527 7.149-4.527h1.278c.382 0 .382 1.21.382 1.848 0 .637 0 1.85-.382 1.85-3.831 0-4.98.32-7.722 3.7M78.347 43.31c.73-.551 2.664-1.985 2.946-2.197.464-3.183 1.61-8.541 4.262-14.032 2.855-5.91 7.435-12.437 13.826-16.77 5.361-3.632 14.201-7.623 21.021-9.097C125.996.006 131.24-.221 135.718.186c9.237.84 14.348 3.477 16.897 6.89.961 1.288 1.487 2.863 1.522 3.883.058 1.694-.693 3.917-3.117 6.087-2.366 2.117-7.409 4.764-14.313 7.075-7.152 2.394-16.91 4.929-26.659 7.174-8.165 1.88-14.78 4.017-18.616 5.46-1.14.43-1.889.777-2.893 1.232-.614 1.469-2.026 5.404-2.384 7.475 7.148 2.866 11.783 6.642 15.37 9.583 4.652 3.815 10.051 8.299 16.72 16.423 6.08 7.407 15.98 21.615 19.57 35.405 3.933 15.109 1.461 29.469-7.045 33.46-8.35 3.92-19.498-1.747-27.308-9.876-7.442-7.744-12.635-16.838-17.522-30.85-4.21-12.074-5.934-29.568-5.924-38.708.003-3.04.005-4.862.117-7.62-3.424-2.198-7.426-2.078-11.944.534-8.25 4.77-16.786 15.027-21.334 20.393-1.988 2.347-4.675 5.775-7.52 9.358-3.76 4.73-7.894 9.669-11.676 12.422-5.682 4.134-14.813 5.876-21.21 1.296C2.88 94.727.992 89.912.933 85.019c-.042-3.48.802-6.607 2.525-9.657 2.137-3.78 5.66-7.832 11.261-12.471 5.784-4.791 15.012-10.172 24.26-13.906 14.107-5.696 29.3-7.507 39.368-5.675M341.932 114.375h2.607V18h-2.607zM387.327 74.876V62.977c0-5.725-4.26-9.158-9.863-9.158-5.342 0-9.097 2.607-9.097 9.924v9.99c0 7.191 4.009 9.796 9.737 9.796 5.216 0 9.223-4.075 9.223-8.653m0-18.959V39.384c0-.384 1.083-.384 1.718-.384.636 0 1.72 0 1.72.384v46.439c0 .38-1.084.38-1.72.38-.635 0-1.656 0-1.656-.38v-4.776c-1.526 2.673-4.958 5.664-10.305 5.664-7.254 0-12.152-4.201-12.152-12.407V63.169c0-8.206 4.898-12.408 11.96-12.408 5.41 0 8.908 2.485 10.435 5.156M396.932 85.823V51.594c0-.385 1.08-.385 1.714-.385.64 0 1.72 0 1.72.385v34.229c0 .38-1.08.38-1.72.38-.634 0-1.714 0-1.714-.38m0-40.402v-6.037c0-.384 1.08-.384 1.714-.384.64 0 1.72 0 1.72.384v6.037c0 .381-1.08.381-1.72.381-.634 0-1.714 0-1.714-.381M409.37 62.982v9.99c0 7.314 3.94 9.927 9.098 9.927 5.599 0 9.857-3.503 9.857-9.228V61.774c0-4.582-4.136-8.588-9.731-8.588-5.216 0-9.224 2.606-9.224 9.796zm18.955 17.752c-1.525 2.669-5.023 5.216-10.43 5.216-7.062 0-11.963-4.201-11.963-12.407V62.408c0-8.206 4.9-12.408 12.153-12.408 5.283 0 8.78 2.547 10.308 5.156v-4.324c0-.384 1.018-.384 1.65-.384.64 0 1.723 0 1.723.384v33.146c0 9.608-4.646 14.442-12.98 14.442-4.071 0-8.271-1.653-10.372-2.801-.635-.379.89-3.436 1.527-3.053 1.339.769 4.835 2.738 9.164 2.738 5.66 0 9.22-2.928 9.22-9.992v-4.578zM437.932 85.823V51.594c0-.385 1.079-.385 1.717-.385.637 0 1.718 0 1.718.385v34.229c0 .38-1.081.38-1.718.38-.638 0-1.717 0-1.717-.38m0-40.402v-6.037c0-.384 1.079-.384 1.717-.384.637 0 1.718 0 1.718.384v6.037c0 .381-1.081.381-1.718.381-.638 0-1.717 0-1.717-.381M457.765 85.247c-4.77 0-6.556-2.801-6.556-6.549V54.58h-4.832c-.445 0-.445-.765-.445-1.4 0-.635 0-1.463.445-1.463h4.832v-8.331c0-.386 1.083-.386 1.722-.386.636 0 1.714 0 1.714.386v8.331h7.509c.384 0 .978.697.978 1.463 0 .765-.594 1.4-.978 1.4h-7.51v23.985c0 2.672 1.15 3.692 3.948 3.692h3.502c.444 0 1.166.125 1.166 1.399 0 1.398-.722 1.591-1.166 1.591h-4.33zM487.754 67.567c-12.98-1.847-18.39.571-18.39 6.548v1.59c0 4.838 3.629 7.128 7.952 7.128 4.264 0 7.953-2.162 10.438-4.712V67.567zm1.717 17.875c-.634 0-1.654 0-1.654-.38v-3.756c-2.163 1.973-6.11 4.644-11.006 4.644-6.745 0-10.88-3.88-10.88-10.245v-1.648c0-7.894 6.869-11.266 21.823-9.229v-2.8c0-6.299-2.418-8.841-8.332-8.841-3.117 0-6.746.698-9.356 2.098-.761.444-1.971-2.738-1.146-3.119 2.42-1.143 6.616-2.166 10.627-2.166 8.08 0 11.644 4.266 11.644 11.774v23.288c0 .38-1.085.38-1.72.38zM503.483 85.948c-4.71 0-6.551-2.801-6.551-6.549V39.384c0-.384 1.08-.384 1.712-.384.64 0 1.722 0 1.722.384v39.882c0 2.672 1.21 3.756 4.007 3.756h1.718c.445 0 .574.125.574 1.4 0 1.401-.13 1.526-.574 1.526h-2.608z"/></g></svg>