<svg width="140" height="24" viewBox="0 0 140 24" xmlns="http://www.w3.org/2000/svg"><title>tencent</title><path d="M128.871 10.479l-1.148 4.593-2.182 8.641h5.053l2.182-8.641 1.148-4.593h-5.053zM92.469 9.072c2.694 0 4.136 1.059 4.306 3.187H86.642c.289-.496.623-.93 1.033-1.321a6.678 6.678 0 0 1 1.378-1.005 6.797 6.797 0 0 1 1.636-.631 6.82 6.82 0 0 1 1.78-.23zm-65.282 0c2.694 0 4.134 1.059 4.306 3.187H21.359c.287-.496.62-.93 1.033-1.321a6.496 6.496 0 0 1 1.378-1.005 6.725 6.725 0 0 1 1.637-.631 6.814 6.814 0 0 1 1.78-.23zm90.23-3.1c-2.215 0-4.377.684-6.488 2.067l-4.68-1.579-2.153 8.612-2.153 8.641h5.081l2.067-8.325c.028-.107.059-.22.086-.316.531-1.984 1.235-3.399 2.096-4.22.922-.873 2.198-1.292 3.875-1.292 1.54 0 2.538.314 2.957.976.434.648.427 1.831 0 3.531l-.258 1.005-2.153 8.641h5.081l2.153-8.641.488-1.952c.61-2.433.441-4.175-.516-5.253-1.105-1.264-2.941-1.895-5.483-1.895zm-64.852 0c-2.214 0-4.379.684-6.488 2.067l-4.68-1.579-2.153 8.612-2.153 8.641h5.081l2.067-8.325c.027-.107.06-.22.086-.316.528-1.984 1.237-3.399 2.096-4.22.921-.873 2.2-1.292 3.875-1.292 1.541 0 2.539.314 2.957.976.436.648.427 1.831 0 3.531l-.229 1.005-2.182 8.641h5.081l2.154-8.641.487-1.952c.61-2.433.443-4.175-.516-5.253-1.106-1.264-2.939-1.895-5.483-1.895zm40.708-.489c-3.187 0-5.949.833-8.297 2.498-2.336 1.689-3.854 3.902-4.536 6.632-.04.159-.081.303-.114.459-.526 2.534-.062 4.601 1.406 6.173 1.561 1.653 3.976 2.468 7.235 2.468 5.554 0 9.817-3.39 10.249-3.76l-2.412-.546c-.567.131-3.656 1.026-6.746.747-3.897-.351-4.785-3.205-4.565-4.622h15.646l.144-.46.115-.488c.712-2.845.36-5.084-1.091-6.689-1.466-1.619-3.815-2.412-7.034-2.412zm-18.919 0c-3.352 0-6.383.87-9.129 2.642-2.75 1.773-4.437 3.969-5.082 6.545-.035.142-.086.263-.114.402-.481 2.391.156 4.413 1.895 6.057 1.844 1.725 4.454 2.584 7.837 2.584 2.05 0 4.201-.424 6.459-1.263l1.321-5.253c-1.502 1.156-2.762 1.925-3.761 2.325a8.918 8.918 0 0 1-3.359.632c-1.9 0-3.338-.51-4.306-1.55-.856-.938-1.163-2.127-.919-3.532.028-.155.075-.299.115-.459.396-1.582 1.35-2.912 2.871-3.962 1.518-1.049 3.237-1.579 5.139-1.579 1.211 0 2.192.206 2.985.632.809.412 1.656 1.186 2.526 2.296l1.321-5.311c-1.712-.814-3.643-1.206-5.799-1.206zm-46.363 0c-3.186 0-5.949.833-8.297 2.498-2.336 1.689-3.853 3.902-4.536 6.632-.04.159-.082.303-.115.459-.525 2.534-.059 4.601 1.407 6.173 1.563 1.653 3.974 2.468 7.234 2.468 5.557 0 9.816-3.39 10.249-3.76l-2.411-.546c-.568.131-3.656 1.026-6.747.747-3.898-.351-4.782-3.205-4.564-4.622h15.646l.143-.46.115-.488c.71-2.845.334-5.084-1.119-6.689-1.466-1.619-3.788-2.412-7.005-2.412zm102.976-3.444l-1.091 4.421h-4.192l-.803 3.272h15.33l-9.244-7.693zM.861 0L0 3.359h7.981L5.053 15.072l-2.154 8.641h5.225l2.154-8.641 2.928-11.713h7.952L21.991 0H.861z" fill="#DEDFDF" fill-rule="evenodd"/></svg>