<svg width="178" height="47" viewBox="0 0 178 47" xmlns="http://www.w3.org/2000/svg"><title>thaiprogrammer</title><g fill="#DEDFDF" fill-rule="evenodd"><path d="M21.763 37.836c0 .216-.272.392-.608.392H10.617c-.336 0-.61-.176-.61-.392v-.653c0-.217.274-.392.61-.392h10.538c.336 0 .608.175.608.392v.653zm-4.296 2.625a.39.39 0 0 1-.387.393h-6.686a.39.39 0 0 1-.387-.393v-.652a.39.39 0 0 1 .387-.392h6.686c.214 0 .387.175.387.392v.652zm6.315-3.578v-1.176c0-.391-.342-.707-.765-.707H9.765c-.423 0-.765.316-.765.707v1.176c0 .328.242.605.571.684-.329.08-.571.356-.571.684v1.177c0 .328.242.604.571.684-.329.079-.571.355-.571.684v1.177c0 .39.342.707.765.707h13.252c.423 0 .765-.317.765-.707v-1.177c0-.329-.243-.605-.571-.684.328-.08.571-.356.571-.684v-1.177c0-.328-.242-.604-.571-.684.329-.079.571-.356.571-.684zM16.245 46.935c3.449 0 6.245-1.762 6.245-3.935H10c0 2.173 2.796 3.935 6.245 3.935M14.904 34.76h-4.843a.839.839 0 0 1-.806-.608c-.328-1.133-.276-2.237-.226-3.304.063-1.347.116-2.51-.588-3.515-1.451-2.07-4.096-6.969-4.367-7.472-.259-.26-1.359-1.035-2.098-1.553-.621-.437-1.207-.848-1.64-1.179a.852.852 0 0 1-.335-.643c-.019-.417.251-.684.429-.86.127-.126.294-.278.487-.454.337-.309.756-.69 1.1-1.06.443-.474.542-.69.56-.738.216-2.933.988-5.465 2.297-7.523a12.257 12.257 0 0 1 4.193-4.037C11.98.107 14.761.004 14.879 0a.84.84 0 0 1 .052 1.678c-.036.002-2.533.11-5.076 1.621-3.374 2.005-5.26 5.445-5.604 10.224-.062.853-.958 1.75-2.135 2.828l.826.583c2.016 1.416 2.444 1.758 2.612 2.134.254.47 2.885 5.336 4.263 7.301 1.032 1.473.956 3.111.89 4.557-.035.75-.069 1.467.032 2.153h4.165a.84.84 0 1 1 0 1.68M22.683 34.76H17.84a.84.84 0 1 1 0-1.68h4.165c.101-.687.068-1.404.032-2.154-.066-1.446-.142-3.084.89-4.557 1.38-1.966 4.01-6.832 4.262-7.3.17-.377.598-.719 2.613-2.135.278-.196.562-.395.826-.583-1.175-1.078-2.073-1.975-2.133-2.829-.348-4.807-2.254-8.259-5.666-10.259-2.548-1.493-4.99-1.584-5.014-1.585A.84.84 0 0 1 17 .814.84.84 0 0 1 17.866 0c.117.003 2.9.107 5.812 1.814a12.263 12.263 0 0 1 4.192 4.037c1.31 2.058 2.082 4.59 2.297 7.524.018.047.118.263.56.737.345.37.764.751 1.101 1.06.192.176.36.328.486.453.18.177.448.444.43.861a.856.856 0 0 1-.336.643c-.433.331-1.019.743-1.64 1.18-.738.518-1.839 1.291-2.098 1.552-.27.503-2.916 5.402-4.367 7.472-.704 1.004-.65 2.168-.588 3.515.05 1.067.101 2.171-.225 3.304a.84.84 0 0 1-.807.607"/><path d="M21.865 10.868h-.421v-2.14h-4.961a.21.21 0 0 1-.204-.16l-.185-.771-.81 2.3a.21.21 0 0 1-.402-.018l-.78-3.084-.478 1.584a.21.21 0 0 1-.201.149H11.42v1.414H11V8.518a.21.21 0 0 1 .21-.21h2.056l.653-2.158a.21.21 0 1 1 .404.009l.796 3.142.813-2.312a.21.21 0 0 1 .403.02l.313 1.299h5.006a.21.21 0 0 1 .211.21v2.35zM13.72 33.069h-.42v-7.234h-2.09a.21.21 0 0 1-.21-.21V21h.42v4.415h2.09a.21.21 0 0 1 .21.21v7.444z"/><path d="M10 21.689h2.494V10H10zM19.42 32.957H19v-7.444a.21.21 0 0 1 .21-.21h2.783V19h.419v6.513a.21.21 0 0 1-.209.21H19.42v7.234z"/><path d="M19.682 19.603c-2.061 0-3.731-1.705-3.731-3.807 0-2.103 1.67-3.807 3.731-3.807 2.062 0 3.732 1.704 3.732 3.807 0 2.102-1.67 3.807-3.732 3.807m0-9.603C16.544 10 14 12.595 14 15.796s2.544 5.796 5.682 5.796c3.139 0 5.683-2.595 5.683-5.796S22.821 10 19.682 10M83.563 16.539h2.007c.369 0 .681-.036.937-.106.256-.071.464-.175.623-.314.16-.139.275-.309.346-.512.071-.202.108-.435.108-.698a1.85 1.85 0 0 0-.132-.745c-.088-.2-.217-.36-.388-.48a1.678 1.678 0 0 0-.633-.258 4.36 4.36 0 0 0-.875-.077h-1.993v3.19zM82 12h3.556c.383 0 .736.017 1.059.05.322.032.616.093.882.183.265.09.502.212.709.368.208.154.388.355.54.6.295.475.443 1.025.443 1.651 0 .499-.079.938-.236 1.316a2.423 2.423 0 0 1-.696.953 3.1 3.1 0 0 1-1.133.583 5.576 5.576 0 0 1-1.554.197h-2.007v3.67H82V12zM92.563 16.312h2.436c.345 0 .643-.028.892-.084.249-.057.453-.146.612-.269.16-.122.277-.281.353-.476.077-.196.114-.432.114-.71 0-.499-.146-.872-.438-1.118-.294-.248-.749-.371-1.367-.371h-2.602v3.028zm6.4 5.258h-1.695l-.851-2.442c-.17-.484-.403-.849-.696-1.093-.293-.245-.685-.368-1.179-.368h-1.979v3.903H91V12h4.165c.498 0 .957.044 1.377.134.419.089.78.238 1.083.448.301.209.537.487.705.833.169.346.253.774.253 1.288 0 .672-.179 1.221-.537 1.645-.357.422-.864.698-1.518.825.341.137.631.357.868.66.237.304.443.698.619 1.183l.948 2.554zM104.477 20.54c.438 0 .836-.084 1.194-.254.358-.169.662-.412.917-.727.253-.315.45-.693.587-1.136a4.94 4.94 0 0 0 .208-1.483c0-.536-.068-1.024-.204-1.464a3.484 3.484 0 0 0-.577-1.136 2.594 2.594 0 0 0-.907-.738 2.67 2.67 0 0 0-1.191-.261 2.647 2.647 0 0 0-2.12.988 3.394 3.394 0 0 0-.592 1.136 4.973 4.973 0 0 0-.208 1.475c0 .546.072 1.04.212 1.483.141.443.338.821.592 1.136.253.315.558.558.913.727.356.17.747.254 1.176.254m.014-8.54c.665 0 1.272.119 1.824.356a4.117 4.117 0 0 1 1.418 1.002c.394.431.701.951.92 1.56.22.61.329 1.284.329 2.022 0 .74-.107 1.412-.318 2.019a4.54 4.54 0 0 1-.907 1.563 4.01 4.01 0 0 1-1.419 1.01 4.648 4.648 0 0 1-1.847.357 4.66 4.66 0 0 1-1.844-.353 4.016 4.016 0 0 1-1.415-1.003 4.539 4.539 0 0 1-.909-1.563 6.07 6.07 0 0 1-.323-2.03c0-.738.11-1.412.33-2.022a4.532 4.532 0 0 1 .922-1.56c.398-.43.871-.764 1.419-1.002a4.546 4.546 0 0 1 1.82-.356M114.449 21.889c-.679 0-1.29-.115-1.837-.346a3.916 3.916 0 0 1-1.401-.988 4.439 4.439 0 0 1-.897-1.56c-.21-.611-.314-1.296-.314-2.054 0-.739.104-1.413.314-2.022.21-.61.51-1.13.9-1.56.389-.43.861-.764 1.415-1.002.553-.238 1.174-.357 1.861-.357.591 0 1.127.07 1.609.208.482.139.899.343 1.252.611.353.268.634.597.844.988.21.391.341.837.392 1.341h-1.572c-.078-.569-.333-1.013-.764-1.33-.431-.318-1.014-.476-1.747-.476-.438 0-.836.08-1.194.243a2.573 2.573 0 0 0-.92.702 3.26 3.26 0 0 0-.595 1.129 5.074 5.074 0 0 0-.211 1.525c0 .574.072 1.085.215 1.531.142.448.343.824.601 1.13.259.306.57.538.935.699.364.16.767.239 1.211.239.604 0 1.13-.093 1.577-.281.447-.189.816-.48 1.107-.876V18.07h-2.283v-1.285h3.799v4.941h-1.039l-.283-.91c-.332.353-.746.62-1.239.801-.493.181-1.073.272-1.736.272M122.563 16.312h2.436c.346 0 .643-.028.893-.084a1.56 1.56 0 0 0 .612-.269c.16-.122.277-.281.353-.476.075-.196.113-.432.113-.71 0-.499-.145-.872-.438-1.118-.293-.248-.749-.371-1.367-.371h-2.602v3.028zm6.4 5.258h-1.695l-.851-2.442c-.17-.484-.402-.849-.695-1.093-.293-.245-.686-.368-1.18-.368h-1.979v3.903H121V12h4.165c.499 0 .958.044 1.377.134a2.95 2.95 0 0 1 1.083.448c.302.209.538.487.706.833.168.346.253.774.253 1.288 0 .672-.179 1.221-.538 1.645-.357.422-.863.698-1.518.825.342.137.631.357.869.66.237.304.443.698.619 1.183l.947 2.554zM131.92 17.653h2.864l-1.404-3.959h-.131l-1.329 3.959zm5.867 3.917h-1.633l-.961-2.646h-3.702l-.906 2.646H129l3.46-9.57h1.716l3.611 9.57zM148.3 21.571h-1.46V16.92c0-.546.002-1.088.007-1.627.004-.539.007-1.076.007-1.613l-2.477 7.891h-1.405l-2.526-7.891a172.56 172.56 0 0 1 .029 3.24v4.651H139V12h2.27l2.408 7.588L146.017 12h2.283v9.571zM159.299 21.571h-1.46V16.92c0-.546.003-1.088.007-1.627.005-.539.008-1.076.008-1.613l-2.478 7.891h-1.404l-2.527-7.891a172.56 172.56 0 0 1 .029 3.24v4.651H150V12h2.27l2.407 7.588L157.016 12h2.283v9.571zM169.099 21.571H162V12h6.878v1.377h-5.314v2.583h4.974v1.39h-4.974v2.845h5.535zM171.563 16.312h2.436c.346 0 .643-.028.893-.084.249-.057.453-.146.612-.269.16-.122.277-.281.353-.476.076-.196.114-.432.114-.71 0-.499-.146-.872-.439-1.118-.293-.248-.749-.371-1.366-.371h-2.603v3.028zm6.401 5.258h-1.695l-.852-2.442c-.17-.484-.402-.849-.695-1.093-.293-.245-.686-.368-1.18-.368h-1.979v3.903H170V12h4.166c.498 0 .957.044 1.376.134.42.089.781.238 1.083.448.302.209.538.487.706.833.168.346.253.774.253 1.288 0 .672-.179 1.221-.537 1.645-.358.422-.864.698-1.518.825.341.137.63.357.868.66.237.304.443.698.619 1.183l.948 2.554zM40 39.985h1.478V7H40zM54.466 13.391h-2.962v8.18h-1.557v-8.18H47V12h7.466zM63.528 21.571h-1.557v-4.362h-4.408v4.362H56V12h1.563v3.833h4.408V12h1.557zM66.92 17.653h2.864l-1.404-3.959h-.132l-1.328 3.959zm5.867 3.917h-1.633l-.962-2.646h-3.701l-.906 2.646H64L67.46 12h1.716l3.611 9.57zM74 21.571h1.557V12H74zM56.021 37.168h-.778v-3.979c-.693-.138-1.453-.225-2.042-.225-1.384 0-2.422.502-2.422 2.007 0 1.021.726 1.592 1.627 1.592.397 0 .882-.104 1.262-.294v.726a2.984 2.984 0 0 1-1.332.294c-1.211 0-2.336-.796-2.336-2.301 0-2.093 1.523-2.75 3.184-2.75.675 0 1.401.104 2.059.242v-1.384c0-1.488-.917-1.972-2.111-1.972-.831 0-1.885.277-2.612.571l-.121-.727a7.351 7.351 0 0 1 2.733-.571c.813 0 1.575.191 2.111.658.051-.138.069-.191.103-.329l.173-.726h.778l-.19.813c-.086.397-.19.623-.415.795.208.381.329.865.329 1.454v6.106zM58.657 37.649H58V29h.778v6.262c.986 1.073 2.007 1.782 3.097 1.782.917 0 1.298-.52 1.298-1.557V29h.778v6.521c0 1.609-.899 2.249-2.024 2.249-1.176 0-2.266-.709-3.149-1.73l-.121 1.609zM69.117 37.771h-.778v-6.158c0-1.35-.796-1.886-1.868-1.886-.451 0-.969.104-1.471.277v-.692A4.276 4.276 0 0 1 66.54 29c1.574 0 2.577.9 2.577 2.578v6.193zM71.864 34.587c-.519-.536-.864-1.193-.864-2.145v-.571C71 29.899 72.574 29 74.148 29s3.149.899 3.149 2.871v5.899h-.78v-5.899c0-1.488-1.193-2.145-2.369-2.145-1.194 0-2.37.657-2.37 2.145v.519c0 .709.139 1.124.415 1.47.294-.38.727-.553 1.384-.553h1.072v.727h-.951c-.709 0-.951.19-1.107.899l-.623 2.837h-.795l.691-3.183zM79.657 37.649H79V29h.778v6.262c.986 1.073 2.007 1.782 3.097 1.782.917 0 1.297-.52 1.297-1.557V29h.779v6.521c0 1.609-.9 2.249-2.024 2.249-1.176 0-2.266-.709-3.149-1.73l-.121 1.609zM88.815 36.39c0 .415.139.588.606.588h.415v.726h-.415c-.952 0-1.384-.501-1.384-1.262V29.92c0-1.592-1.037-2.751-1.037-4.117v-.502C87 23.623 88.072 23 89.525 23h1.833v.727h-1.833c-1.056 0-1.747.45-1.747 1.609v.467c0 1.263 1.037 2.404 1.037 4.117v6.47zM91 28.633h.779v6.332c0 1.245 1.021 1.712 2.162 1.712.848 0 1.765-.259 2.353-.657V25h.778v11.452c-.778.571-1.971.952-3.131.952-1.504 0-2.941-.658-2.941-2.422v-6.349zM104.034 30.038c-.519-.139-1.35-.312-2.18-.312-1.072 0-2.076.312-2.076 1.333 0 2.041 4.775 1.487 4.775 4.341 0 1.851-1.228 2.492-2.802 2.492-.796 0-1.782-.19-2.509-.398l.104-.744c.744.225 1.626.415 2.439.415 1.107 0 1.989-.398 1.989-1.765 0-2.196-4.774-1.591-4.774-4.341 0-1.558 1.401-2.059 2.82-2.059.847 0 1.66.173 2.318.363l-.104.675zM109.598 36.335c0 .415.139.588.605.588h.416v.726h-.416c-.951 0-1.383-.501-1.383-1.262V29h.778v7.335zm-2.819 0c0 .415.138.588.605.588h.415v.726h-.415c-.951 0-1.384-.501-1.384-1.262V29h.779v7.335zM117.313 37.771h-.778v-5.882c0-1.643-.9-2.162-2.197-2.162-.847 0-1.764.259-2.491.571l.277 1.609v5.864h-.779v-5.864l-.345-1.99c1.106-.501 2.162-.917 3.338-.917 1.712 0 2.975.727 2.975 2.889v5.882zM124.034 30.038c-.52-.139-1.35-.312-2.181-.312-1.072 0-2.075.312-2.075 1.333 0 2.041 4.775 1.487 4.775 4.341 0 1.851-1.229 2.492-2.803 2.492-.796 0-1.782-.19-2.508-.398l.104-.744c.743.225 1.625.415 2.439.415 1.106 0 1.989-.398 1.989-1.765 0-2.196-4.774-1.591-4.774-4.341 0-1.558 1.4-2.059 2.819-2.059.848 0 1.661.173 2.319.363l-.104.675zM126.657 37.649H126V29h.778v6.262c.985 1.073 2.007 1.782 3.096 1.782.917 0 1.298-.52 1.298-1.557V29h.778v6.521c0 1.609-.899 2.249-2.024 2.249-1.176 0-2.266-.709-3.148-1.73l-.121 1.609zM134.778 36.335c0 .415.138.588.604.588h.417v.726h-.417c-.951 0-1.382-.501-1.382-1.262V29h.778v7.335zM138.657 37.649H138V29h.778v6.262c.985 1.073 2.007 1.782 3.096 1.782.918 0 1.298-.52 1.298-1.557V29h.778v6.521c0 1.609-.899 2.249-2.024 2.249-1.176 0-2.266-.709-3.148-1.73l-.121 1.609zM145 34.778c0-1.142.554-1.833 1.833-1.833h1.28v.726h-1.245c-.796 0-1.09.398-1.09 1.124v1.748c.554.345 1.471.622 2.353.622 1.141 0 2.197-.415 2.197-1.712v-3.668c0-1.557-.986-2.058-2.163-2.058-.916 0-1.92.311-2.716.657l-.137-.657c.794-.381 1.868-.727 2.853-.727 1.557 0 2.941.727 2.941 2.751v3.719c0 1.765-1.419 2.422-2.975 2.422-1.125 0-2.301-.364-3.131-.934v-2.18zM158.033 30.038c-.519-.139-1.349-.312-2.179-.312-1.073 0-2.076.312-2.076 1.333 0 2.041 4.775 1.487 4.775 4.341 0 1.851-1.229 2.492-2.803 2.492-.796 0-1.781-.19-2.508-.398l.104-.744c.744.225 1.625.415 2.439.415 1.106 0 1.989-.398 1.989-1.765 0-2.196-4.774-1.591-4.774-4.341 0-1.558 1.4-2.059 2.819-2.059.848 0 1.661.173 2.318.363l-.104.675zM155.761 27.076h-.64a3.666 3.666 0 0 1-.121-.899c0-.83.346-1.177 1.194-1.177h3.027l-.121.727h-2.855c-.363 0-.484.138-.484.484v.865z"/><path d="M161.076 29.366c0-2.214 1.366-3.114 1.366-4.463v-.45c0-.502-.173-.726-.709-.726H159V23h2.733c.969 0 1.488.502 1.488 1.419v.484c0 1.523-1.367 2.491-1.367 4.481v7.006c0 .415.139.588.606.588h.415v.726h-.415c-.951 0-1.384-.501-1.384-1.262v-7.076zM164.778 31.543c.588-1.211 1.661-2.543 3.131-2.543 1.056 0 2.042.553 2.042 2.145v6.626h-.778v-6.626c0-1.072-.588-1.418-1.298-1.418-1.211 0-2.388 1.366-3.097 2.889v5.155H164v-8.65h.778v2.422zM178.106 35.366c0 1.816-1.383 2.404-2.992 2.404-1.142 0-2.301-.346-3.114-.709V35.02c0-.917.086-1.627 1.089-2.076-.57-.242-1.089-.865-1.089-1.73v-.398c0-1.09.571-1.816 1.73-1.816h1.297v.726h-1.211c-.743 0-1.038.329-1.038 1.038v.485c0 .916.536 1.349 1.419 1.349h1.09v.726h-1.09c-1.09 0-1.419.537-1.419 1.592v1.678a6.75 6.75 0 0 0 2.336.45c1.159 0 2.214-.415 2.214-1.765V29h.778v6.366z"/></g></svg>