<svg width="226" height="35" viewBox="0 0 226 35" xmlns="http://www.w3.org/2000/svg"><title>thoughtworks</title><g fill="#DEDFDF" fill-rule="evenodd"><path d="M223.546 9.941c.389.01.658-.081.658-.505 0-.469-.496-.434-.83-.434h-.775v.939h.947zm1.217 1.976h-.828l-.768-1.454h-.568v1.454h-.723V8.471h1.66c.904 0 1.336.243 1.336 1.056 0 .631-.333.893-.937.936l.828 1.454zm.767-1.742c0-1.417-.982-2.426-2.346-2.426-1.388 0-2.345 1.009-2.345 2.426 0 1.435.957 2.437 2.345 2.437 1.364 0 2.346-1.002 2.346-2.437zm-5.53 0A3.176 3.176 0 0 1 223.184 7a3.188 3.188 0 0 1 3.186 3.175 3.193 3.193 0 0 1-3.186 3.196A3.181 3.181 0 0 1 220 10.175zM20.363 4.799h-7.345V28.29H7.345V4.799H0V0h20.363zM27.381 10.036c1.71-1.418 3.819-2.546 6.074-2.546 2.218 0 5.345 1.346 5.345 6.363V28.29h-5.381V16.035c0-1.635.109-4.218-2.219-4.218-1.563 0-2.799 1.129-3.819 2.218V28.29H22V0h5.381v10.036zM53.364 17.619c0-2.546-.51-6.654-3.419-6.654s-3.418 4.108-3.418 6.654c0 2.546.509 6.654 3.418 6.654 2.909 0 3.419-4.108 3.419-6.654m-12.364 0C41 12.201 43.981 7 49.945 7s8.946 5.201 8.946 10.619c0 5.381-3.018 10.617-8.946 10.617C44.018 28.236 41 23 41 17.619M72.419 25.256c-1.709 1.418-3.818 2.544-6.073 2.544-2.218 0-5.346-1.344-5.346-6.362V7h5.381v12.255c0 1.637-.108 4.219 2.22 4.219 1.563 0 2.799-1.127 3.818-2.219V7h5.382v20.365h-5.382v-2.109zM88.946 17.948c2.254 0 2.909-1.855 2.909-3.783 0-1.855-.873-3.419-2.909-3.419-2.255 0-2.946 1.892-2.946 3.819 0 1.854.873 3.383 2.946 3.383zm-3.71 10.145c-.509.327-.836.618-.836 1.272 0 1.892 3.818 2.001 5.091 2.001.909 0 5.637-.109 5.637-1.747 0-1.054-.726-.945-3.928-1.128l-5.964-.398zm1.71-6.727c-.619 0-1.527.326-1.527 1.272 0 2.655 14.109-1.963 14.109 6.001 0 3.018-2.037 6.218-10.11 6.218-7.017 0-9.418-2.474-9.418-5.127 0-1.565.982-2.365 2.218-3.093-.873-.654-1.599-1.418-1.599-2.581 0-2.001 1.091-3.054 2.654-4.072-1.492-1.456-2.545-3.274-2.545-5.6 0-4.51 3.819-7.128 8.218-7.128 1.781 0 3.491.509 5.018 1.418C95.055 7.656 96.036 7 97.637 7c.509 0 1.055.037 1.564.145v3.782c-.546-.216-1.127-.435-1.71-.435-.581 0-.944.181-1.455.435.582 1.092 1.056 2.292 1.091 3.457 0 4.509-3.782 7.127-8.181 7.127l-2-.145zM106.383 10.036c1.708-1.418 3.818-2.546 6.073-2.546 2.219 0 5.345 1.346 5.345 6.363V28.29h-5.381V16.035c0-1.635.109-4.218-2.219-4.218-1.564 0-2.799 1.129-3.818 2.218V28.29H101V0h5.383v10.036zM127.892 7.09h4.183v4.475h-4.183v10.363c0 .981.291 2 2.036 2 .909 0 1.491-.363 2.147-.764v4.11c-1.129.327-2.292.617-3.456.617-3.345 0-6.108-1.889-6.108-6.326v-10H120V7.09h2.511V2h5.381v5.09zM154.673 28.29h-2.91l-4.799-23.128h-.072l-5.056 23.128h-2.909L133 0h2.836l4.655 22.835h.073L145.654 0h2.801l4.835 22.835h.074L158.346 0h2.8zM173.237 17.618c0-3.417-.834-8.217-5.199-8.217-4.363 0-5.201 4.8-5.201 8.217 0 3.42.838 8.22 5.201 8.22 4.365 0 5.199-4.8 5.199-8.22m-13.237 0C160 10.092 163.566 7 168.038 7c4.473 0 8.037 3.092 8.037 10.618 0 7.529-3.564 10.621-8.037 10.621-4.472 0-8.038-3.092-8.038-10.621M180.835 11.62h.074c1.127-2.4 2.583-4.62 5.564-4.62h1.091v2.583c-3.709-.509-5.637 3.492-6.729 6.401v11.382H178V7.292h2.835v4.328zM192.837 17.527l7.455-9.311h3.164l-5.527 6.873 6.362 13.201h-3.054l-5.128-10.909-3.272 4.036v6.873H190V0h2.837zM216.672 12.056c-1.127-1.673-2.473-2.655-4.582-2.655-1.854 0-3.6.945-3.6 2.981 0 4.91 10.583 2.764 10.583 9.528 0 3.928-2.8 6.329-6.583 6.329-3.236 0-5.855-1.419-7.49-4.22l2.254-1.419c1.09 2.075 2.836 3.238 5.236 3.238 2.074 0 3.927-1.127 3.927-3.419 0-5.054-10.58-2.655-10.58-9.854 0-3.456 2.837-5.565 6.146-5.565 2.799 0 5.125 1.164 6.689 3.492l-2 1.564z"/></g></svg>